<svg width="56" height="56" viewBox="0 0 56 56" fill="none" xmlns="http://www.w3.org/2000/svg">
<path d="M23.6824 51.2225V41.4219" stroke="url(#paint0_linear_514_1595)" stroke-width="1.4" stroke-linecap="round"/>
<g filter="url(#filter0_i_514_1595)">
<path d="M51.9746 18.6784L31.7776 10.3574L29.2556 16.5056L37.7275 19.1087L39.3514 20.9176L40.6776 20.3844C40.64 20.2641 40.7528 20.0015 41.1083 20.1246L50.3285 22.9805C50.7645 23.1145 51.2302 22.8911 51.3985 22.4672L52.4544 19.8106C52.6313 19.3655 52.4175 18.8608 51.9746 18.6784Z" fill="#C5F5FF"/>
<path d="M51.9746 18.6784L31.7776 10.3574L29.2556 16.5056L37.7275 19.1087L39.3514 20.9176L40.6776 20.3844C40.64 20.2641 40.7528 20.0015 41.1083 20.1246L50.3285 22.9805C50.7645 23.1145 51.2302 22.8911 51.3985 22.4672L52.4544 19.8106C52.6313 19.3655 52.4175 18.8608 51.9746 18.6784Z" fill="url(#paint1_linear_514_1595)"/>
<path d="M51.9746 18.6784L31.7776 10.3574L29.2556 16.5056L37.7275 19.1087L39.3514 20.9176L40.6776 20.3844C40.64 20.2641 40.7528 20.0015 41.1083 20.1246L50.3285 22.9805C50.7645 23.1145 51.2302 22.8911 51.3985 22.4672L52.4544 19.8106C52.6313 19.3655 52.4175 18.8608 51.9746 18.6784Z" fill="url(#paint2_radial_514_1595)"/>
</g>
<g filter="url(#filter1_f_514_1595)">
<path d="M36.3164 13.7539L51.383 20.2184L50.9867 21.2465L37.1238 15.9036L36.3164 13.7539Z" fill="#D7FFFF"/>
</g>
<g filter="url(#filter2_i_514_1595)">
<circle cx="23.2858" cy="26.4796" r="18.4279" fill="url(#paint3_radial_514_1595)"/>
</g>
<circle cx="23.2858" cy="26.4796" r="18.4279" fill="url(#paint4_radial_514_1595)"/>
<path d="M6.79321 26.79C6.95877 35.7568 14.2794 42.9747 23.2858 42.9747C32.2919 42.9747 39.6125 35.7568 39.7781 26.79H6.79321Z" fill="url(#paint5_radial_514_1595)"/>
<path d="M33.6384 20.6299C34.5356 22.5394 36.0261 27.3005 34.9495 31.8281" stroke="url(#paint6_linear_514_1595)" stroke-width="2.25" stroke-linecap="round"/>
<circle cx="16.9703" cy="29.8463" r="1.84628" fill="url(#paint7_radial_514_1595)"/>
<ellipse cx="23.6825" cy="30.6568" rx="1.84628" ry="1.84628" fill="url(#paint8_radial_514_1595)"/>
<circle cx="19.9898" cy="39.3365" r="1.84628" fill="url(#paint9_radial_514_1595)"/>
<path d="M5.03027 51.2225L15.7799 35.2275" stroke="url(#paint10_linear_514_1595)" stroke-width="1.4" stroke-linecap="round"/>
<g filter="url(#filter3_f_514_1595)">
<path d="M5.03027 51.2225L15.7799 35.2275" stroke="#6F5B92" stroke-width="0.4" stroke-linecap="round"/>
</g>
<path d="M41.7136 51.2225L30.964 35.2275" stroke="url(#paint11_linear_514_1595)" stroke-width="1.4" stroke-linecap="round"/>
<g filter="url(#filter4_f_514_1595)">
<path d="M41.9597 50.9715L31.2101 34.9766" stroke="#6E658C" stroke-width="0.4" stroke-linecap="round"/>
</g>
<path d="M6.54858 34.9688H40.2639" stroke="url(#paint12_linear_514_1595)" stroke-width="1.5" stroke-linecap="round"/>
<path d="M6.54858 34.9688H40.2639" stroke="url(#paint13_linear_514_1595)" stroke-width="1.5" stroke-linecap="round"/>
<path d="M6.54858 34.9688H40.2639" stroke="url(#paint14_radial_514_1595)" stroke-width="1.5" stroke-linecap="round"/>
<defs>
<filter id="filter0_i_514_1595" x="29.2556" y="10.3574" width="23.261" height="12.6621" filterUnits="userSpaceOnUse" color-interpolation-filters="sRGB">
<feFlood flood-opacity="0" result="BackgroundImageFix"/>
<feBlend mode="normal" in="SourceGraphic" in2="BackgroundImageFix" result="shape"/>
<feColorMatrix in="SourceAlpha" type="matrix" values="0 0 0 0 0 0 0 0 0 0 0 0 0 0 0 0 0 0 127 0" result="hardAlpha"/>
<feOffset/>
<feGaussianBlur stdDeviation="0.5"/>
<feComposite in2="hardAlpha" operator="arithmetic" k2="-1" k3="1"/>
<feColorMatrix type="matrix" values="0 0 0 0 0.666667 0 0 0 0 0.788235 0 0 0 0 0.992157 0 0 0 1 0"/>
<feBlend mode="normal" in2="shape" result="effect1_innerShadow_514_1595"/>
</filter>
<filter id="filter1_f_514_1595" x="35.8164" y="13.2539" width="16.0667" height="8.49219" filterUnits="userSpaceOnUse" color-interpolation-filters="sRGB">
<feFlood flood-opacity="0" result="BackgroundImageFix"/>
<feBlend mode="normal" in="SourceGraphic" in2="BackgroundImageFix" result="shape"/>
<feGaussianBlur stdDeviation="0.25" result="effect1_foregroundBlur_514_1595"/>
</filter>
<filter id="filter2_i_514_1595" x="4.85791" y="8.05176" width="36.8557" height="36.8555" filterUnits="userSpaceOnUse" color-interpolation-filters="sRGB">
<feFlood flood-opacity="0" result="BackgroundImageFix"/>
<feBlend mode="normal" in="SourceGraphic" in2="BackgroundImageFix" result="shape"/>
<feColorMatrix in="SourceAlpha" type="matrix" values="0 0 0 0 0 0 0 0 0 0 0 0 0 0 0 0 0 0 127 0" result="hardAlpha"/>
<feOffset/>
<feGaussianBlur stdDeviation="0.75"/>
<feComposite in2="hardAlpha" operator="arithmetic" k2="-1" k3="1"/>
<feColorMatrix type="matrix" values="0 0 0 0 0.717647 0 0 0 0 0.862745 0 0 0 0 0.980392 0 0 0 1 0"/>
<feBlend mode="normal" in2="shape" result="effect1_innerShadow_514_1595"/>
</filter>
<filter id="filter3_f_514_1595" x="4.43032" y="34.6273" width="11.9497" height="17.1955" filterUnits="userSpaceOnUse" color-interpolation-filters="sRGB">
<feFlood flood-opacity="0" result="BackgroundImageFix"/>
<feBlend mode="normal" in="SourceGraphic" in2="BackgroundImageFix" result="shape"/>
<feGaussianBlur stdDeviation="0.2" result="effect1_foregroundBlur_514_1595"/>
</filter>
<filter id="filter4_f_514_1595" x="30.61" y="34.3764" width="11.9497" height="17.1955" filterUnits="userSpaceOnUse" color-interpolation-filters="sRGB">
<feFlood flood-opacity="0" result="BackgroundImageFix"/>
<feBlend mode="normal" in="SourceGraphic" in2="BackgroundImageFix" result="shape"/>
<feGaussianBlur stdDeviation="0.2" result="effect1_foregroundBlur_514_1595"/>
</filter>
<linearGradient id="paint0_linear_514_1595" x1="24.4017" y1="47.9612" x2="22.8705" y2="47.9612" gradientUnits="userSpaceOnUse">
<stop stop-color="#4F319E"/>
<stop offset="1" stop-color="#4E3B7D"/>
</linearGradient>
<linearGradient id="paint1_linear_514_1595" x1="39.9826" y1="20.4801" x2="40.7973" y2="17.3512" gradientUnits="userSpaceOnUse">
<stop stop-color="#ADD0FF"/>
<stop offset="1" stop-color="#C7F0FF" stop-opacity="0"/>
</linearGradient>
<radialGradient id="paint2_radial_514_1595" cx="0" cy="0" r="1" gradientUnits="userSpaceOnUse" gradientTransform="translate(39.2135 19.7266) rotate(-35.2628) scale(0.342489 0.851556)">
<stop offset="0.349567" stop-color="#DCFFFF"/>
<stop offset="1" stop-color="#DCFFFF" stop-opacity="0"/>
</radialGradient>
<radialGradient id="paint3_radial_514_1595" cx="0" cy="0" r="1" gradientUnits="userSpaceOnUse" gradientTransform="translate(31.8094 21.7864) rotate(157.235) scale(16.7662)">
<stop offset="0.219364" stop-color="#D8FFFF"/>
<stop offset="1" stop-color="#B6E2FF"/>
</radialGradient>
<radialGradient id="paint4_radial_514_1595" cx="0" cy="0" r="1" gradientUnits="userSpaceOnUse" gradientTransform="translate(23.793 44.9075) rotate(-90) scale(13.5164 27.5625)">
<stop stop-color="#ABC0FC"/>
<stop offset="1" stop-color="#ABC0FC" stop-opacity="0"/>
</radialGradient>
<radialGradient id="paint5_radial_514_1595" cx="0" cy="0" r="1" gradientUnits="userSpaceOnUse" gradientTransform="translate(33.6913 26.79) rotate(90) scale(18.4915 25.1563)">
<stop stop-color="#4DFA92"/>
<stop offset="1" stop-color="#2CB174"/>
</radialGradient>
<linearGradient id="paint6_linear_514_1595" x1="33.6384" y1="19.4393" x2="34.4817" y2="30.2752" gradientUnits="userSpaceOnUse">
<stop offset="0.403403" stop-color="white"/>
<stop offset="1" stop-color="white" stop-opacity="0"/>
</linearGradient>
<radialGradient id="paint7_radial_514_1595" cx="0" cy="0" r="1" gradientUnits="userSpaceOnUse" gradientTransform="translate(17.6405 29.5312) rotate(138.731) scale(1.78259 1.54855)">
<stop stop-color="#E4FFBA"/>
<stop offset="1" stop-color="#B6EE7F"/>
</radialGradient>
<radialGradient id="paint8_radial_514_1595" cx="0" cy="0" r="1" gradientUnits="userSpaceOnUse" gradientTransform="translate(24.3527 30.3418) rotate(138.731) scale(1.78259 1.54855)">
<stop stop-color="#E4FFBA"/>
<stop offset="1" stop-color="#B6EE7F"/>
</radialGradient>
<radialGradient id="paint9_radial_514_1595" cx="0" cy="0" r="1" gradientUnits="userSpaceOnUse" gradientTransform="translate(20.66 39.0215) rotate(138.731) scale(1.78259 1.54855)">
<stop stop-color="#CAF1A6"/>
<stop offset="1" stop-color="#A8D483"/>
</radialGradient>
<linearGradient id="paint10_linear_514_1595" x1="11.1055" y1="44.1878" x2="9.57425" y2="43.225" gradientUnits="userSpaceOnUse">
<stop stop-color="#523082"/>
<stop offset="1" stop-color="#443163"/>
</linearGradient>
<linearGradient id="paint11_linear_514_1595" x1="38.3399" y1="44.5159" x2="36.6992" y2="45.9378" gradientUnits="userSpaceOnUse">
<stop stop-color="#3E236E"/>
<stop offset="1" stop-color="#39285D"/>
</linearGradient>
<linearGradient id="paint12_linear_514_1595" x1="20.0741" y1="35.9555" x2="20.1099" y2="34.4538" gradientUnits="userSpaceOnUse">
<stop stop-color="#481A77"/>
<stop offset="1" stop-color="#4F476E"/>
</linearGradient>
<linearGradient id="paint13_linear_514_1595" x1="4.05069" y1="33.893" x2="10.764" y2="37.539" gradientUnits="userSpaceOnUse">
<stop stop-color="#70677E"/>
<stop offset="1" stop-color="#70677E" stop-opacity="0"/>
</linearGradient>
<radialGradient id="paint14_radial_514_1595" cx="0" cy="0" r="1" gradientUnits="userSpaceOnUse" gradientTransform="translate(31.7226 34.8384) rotate(90) scale(0.453125 15.2772)">
<stop offset="0.216667" stop-color="#716A8E"/>
<stop offset="1" stop-color="#716A8E" stop-opacity="0"/>
</radialGradient>
</defs>
</svg>
