<svg width="56" height="56" viewBox="0 0 56 56" fill="none" xmlns="http://www.w3.org/2000/svg">
<g filter="url(#filter0_ii_514_1597)">
<path d="M6.93417 19.2012C5.09776 19.2012 3.60913 20.6898 3.60913 22.5262V28.5932C3.60913 30.2601 4.77442 31.6548 6.33475 32.0072C6.70439 32.0907 7.00916 32.3935 7.00916 32.7724V46.8938C7.00916 49.9865 9.51634 52.4938 12.6092 52.4938H43.3909C46.4837 52.4938 48.9909 49.9866 48.9909 46.8938V32.7725C48.9909 32.3935 49.2957 32.0907 49.6653 32.0073C51.2257 31.6549 52.391 30.2601 52.391 28.5932V22.5262C52.391 20.6898 50.9024 19.2012 49.066 19.2012H6.93417Z" fill="url(#paint0_linear_514_1597)"/>
</g>
<g filter="url(#filter1_f_514_1597)">
<path d="M11.1807 19.9512H42.1611V23.6318C42.1611 24.7364 41.2657 25.6318 40.1611 25.6318H13.1807C12.0761 25.6318 11.1807 24.7364 11.1807 23.6318V19.9512Z" fill="#3F3170"/>
</g>
<g filter="url(#filter2_f_514_1597)">
<path d="M11.1807 44.4561C11.1807 46.3891 12.7477 47.9561 14.6807 47.9561H38.6611C40.5941 47.9561 42.1611 46.3891 42.1611 44.4561V29.1318C42.1611 27.1988 40.5941 25.6318 38.6611 25.6318H14.6807C12.7477 25.6318 11.1807 27.1988 11.1807 29.1318V44.4561Z" fill="url(#paint1_linear_514_1597)"/>
</g>
<g filter="url(#filter3_ii_514_1597)">
<path d="M12.0283 29.2703C12.0283 27.6756 13.3211 26.3828 14.9158 26.3828H40.8049C42.3996 26.3828 43.6924 27.6756 43.6924 29.2703V44.4406C43.6924 46.0353 42.3996 47.3281 40.8049 47.3281H14.9158C13.3211 47.3281 12.0283 46.0353 12.0283 44.4406V29.2703Z" fill="#DFD5E9"/>
<path d="M12.0283 29.2703C12.0283 27.6756 13.3211 26.3828 14.9158 26.3828H40.8049C42.3996 26.3828 43.6924 27.6756 43.6924 29.2703V44.4406C43.6924 46.0353 42.3996 47.3281 40.8049 47.3281H14.9158C13.3211 47.3281 12.0283 46.0353 12.0283 44.4406V29.2703Z" fill="url(#paint2_radial_514_1597)"/>
<path d="M12.0283 29.2703C12.0283 27.6756 13.3211 26.3828 14.9158 26.3828H40.8049C42.3996 26.3828 43.6924 27.6756 43.6924 29.2703V44.4406C43.6924 46.0353 42.3996 47.3281 40.8049 47.3281H14.9158C13.3211 47.3281 12.0283 46.0353 12.0283 44.4406V29.2703Z" fill="url(#paint3_radial_514_1597)"/>
</g>
<g filter="url(#filter4_ii_514_1597)">
<path d="M12.165 6.49199C12.165 4.89727 13.4578 3.60449 15.0525 3.60449H40.9416C42.5363 3.60449 43.8291 4.89727 43.8291 6.49199V21.6623C43.8291 23.257 42.5363 24.5498 40.9416 24.5498H15.0525C13.4578 24.5498 12.165 23.257 12.165 21.6623V6.49199Z" fill="#DFD5E9"/>
<path d="M12.165 6.49199C12.165 4.89727 13.4578 3.60449 15.0525 3.60449H40.9416C42.5363 3.60449 43.8291 4.89727 43.8291 6.49199V21.6623C43.8291 23.257 42.5363 24.5498 40.9416 24.5498H15.0525C13.4578 24.5498 12.165 23.257 12.165 21.6623V6.49199Z" fill="url(#paint4_radial_514_1597)"/>
<path d="M12.165 6.49199C12.165 4.89727 13.4578 3.60449 15.0525 3.60449H40.9416C42.5363 3.60449 43.8291 4.89727 43.8291 6.49199V21.6623C43.8291 23.257 42.5363 24.5498 40.9416 24.5498H15.0525C13.4578 24.5498 12.165 23.257 12.165 21.6623V6.49199Z" fill="url(#paint5_radial_514_1597)"/>
</g>
<g filter="url(#filter5_i_514_1597)">
<path d="M15.8291 8.33496C15.8291 7.61009 16.4167 7.02246 17.1416 7.02246H24.8936C25.6184 7.02246 26.2061 7.61009 26.2061 8.33496V17.8886C26.2061 18.6135 25.6184 19.2011 24.8936 19.2011H17.1416C16.4167 19.2011 15.8291 18.6135 15.8291 17.8886V8.33496Z" fill="url(#paint6_linear_514_1597)"/>
</g>
<g filter="url(#filter6_i_514_1597)">
<path d="M29.665 7.9043C29.665 7.41727 30.0599 7.02246 30.5469 7.02246H39.3516C39.8386 7.02246 40.2334 7.41727 40.2334 7.9043C40.2334 8.39132 39.8386 8.78613 39.3516 8.78613H30.5469C30.0599 8.78613 29.665 8.39132 29.665 7.9043Z" fill="url(#paint7_linear_514_1597)"/>
</g>
<g filter="url(#filter7_i_514_1597)">
<path d="M29.665 11.3906C29.665 10.9036 30.0599 10.5088 30.5469 10.5088H39.3516C39.8386 10.5088 40.2334 10.9036 40.2334 11.3906C40.2334 11.8776 39.8386 12.2725 39.3516 12.2725H30.5469C30.0599 12.2725 29.665 11.8776 29.665 11.3906Z" fill="url(#paint8_linear_514_1597)"/>
</g>
<g filter="url(#filter8_i_514_1597)">
<path d="M29.665 14.7949C29.665 14.3079 30.0599 13.9131 30.5469 13.9131H39.3516C39.8386 13.9131 40.2334 14.3079 40.2334 14.7949C40.2334 15.2819 39.8386 15.6768 39.3516 15.6768H30.5469C30.0599 15.6768 29.665 15.2819 29.665 14.7949Z" fill="url(#paint9_linear_514_1597)"/>
</g>
<g filter="url(#filter9_i_514_1597)">
<path d="M29.665 18.3193C29.665 17.8323 30.0599 17.4375 30.5469 17.4375H39.3516C39.8386 17.4375 40.2334 17.8323 40.2334 18.3193C40.2334 18.8064 39.8386 19.2012 39.3516 19.2012H30.5469C30.0599 19.2012 29.665 18.8064 29.665 18.3193Z" fill="url(#paint10_linear_514_1597)"/>
</g>
<g filter="url(#filter10_f_514_1597)">
<circle cx="18.0029" cy="29.2119" r="0.943359" fill="#9D8BAE"/>
</g>
<g filter="url(#filter11_f_514_1597)">
<circle cx="37.1709" cy="29.2119" r="0.943359" fill="#9D8BAE"/>
</g>
<path d="M17.6201 21.7881C17.6201 21.3048 18.0119 20.9131 18.4951 20.9131C18.9784 20.9131 19.3701 21.3048 19.3701 21.7881V28.9385C19.3701 29.4217 18.9784 29.8135 18.4951 29.8135C18.0119 29.8135 17.6201 29.4217 17.6201 28.9385V21.7881Z" fill="url(#paint11_radial_514_1597)"/>
<path d="M36.7061 21.7881C36.7061 21.3048 37.0978 20.9131 37.5811 20.9131C38.0643 20.9131 38.4561 21.3048 38.4561 21.7881V28.9385C38.4561 29.4217 38.0643 29.8135 37.5811 29.8135C37.0978 29.8135 36.7061 29.4217 36.7061 28.9385V21.7881Z" fill="url(#paint12_radial_514_1597)"/>
<defs>
<filter id="filter0_ii_514_1597" x="3.40913" y="18.9512" width="49.232" height="33.743" filterUnits="userSpaceOnUse" color-interpolation-filters="sRGB">
<feFlood flood-opacity="0" result="BackgroundImageFix"/>
<feBlend mode="normal" in="SourceGraphic" in2="BackgroundImageFix" result="shape"/>
<feColorMatrix in="SourceAlpha" type="matrix" values="0 0 0 0 0 0 0 0 0 0 0 0 0 0 0 0 0 0 127 0" result="hardAlpha"/>
<feOffset dx="0.25" dy="-0.25"/>
<feGaussianBlur stdDeviation="0.25"/>
<feComposite in2="hardAlpha" operator="arithmetic" k2="-1" k3="1"/>
<feColorMatrix type="matrix" values="0 0 0 0 0.270588 0 0 0 0 0.188235 0 0 0 0 0.376471 0 0 0 1 0"/>
<feBlend mode="normal" in2="shape" result="effect1_innerShadow_514_1597"/>
<feColorMatrix in="SourceAlpha" type="matrix" values="0 0 0 0 0 0 0 0 0 0 0 0 0 0 0 0 0 0 127 0" result="hardAlpha"/>
<feOffset dx="-0.2" dy="0.2"/>
<feGaussianBlur stdDeviation="0.2"/>
<feComposite in2="hardAlpha" operator="arithmetic" k2="-1" k3="1"/>
<feColorMatrix type="matrix" values="0 0 0 0 0.47451 0 0 0 0 0.439216 0 0 0 0 0.713726 0 0 0 1 0"/>
<feBlend mode="normal" in2="effect1_innerShadow_514_1597" result="effect2_innerShadow_514_1597"/>
</filter>
<filter id="filter1_f_514_1597" x="10.4307" y="19.2012" width="32.4805" height="7.18066" filterUnits="userSpaceOnUse" color-interpolation-filters="sRGB">
<feFlood flood-opacity="0" result="BackgroundImageFix"/>
<feBlend mode="normal" in="SourceGraphic" in2="BackgroundImageFix" result="shape"/>
<feGaussianBlur stdDeviation="0.375" result="effect1_foregroundBlur_514_1597"/>
</filter>
<filter id="filter2_f_514_1597" x="10.4307" y="24.8818" width="32.4805" height="23.8242" filterUnits="userSpaceOnUse" color-interpolation-filters="sRGB">
<feFlood flood-opacity="0" result="BackgroundImageFix"/>
<feBlend mode="normal" in="SourceGraphic" in2="BackgroundImageFix" result="shape"/>
<feGaussianBlur stdDeviation="0.375" result="effect1_foregroundBlur_514_1597"/>
</filter>
<filter id="filter3_ii_514_1597" x="11.9283" y="26.2828" width="31.8641" height="21.1453" filterUnits="userSpaceOnUse" color-interpolation-filters="sRGB">
<feFlood flood-opacity="0" result="BackgroundImageFix"/>
<feBlend mode="normal" in="SourceGraphic" in2="BackgroundImageFix" result="shape"/>
<feColorMatrix in="SourceAlpha" type="matrix" values="0 0 0 0 0 0 0 0 0 0 0 0 0 0 0 0 0 0 127 0" result="hardAlpha"/>
<feOffset dx="0.1" dy="-0.1"/>
<feGaussianBlur stdDeviation="0.125"/>
<feComposite in2="hardAlpha" operator="arithmetic" k2="-1" k3="1"/>
<feColorMatrix type="matrix" values="0 0 0 0 0.607843 0 0 0 0 0.568627 0 0 0 0 0.666667 0 0 0 1 0"/>
<feBlend mode="normal" in2="shape" result="effect1_innerShadow_514_1597"/>
<feColorMatrix in="SourceAlpha" type="matrix" values="0 0 0 0 0 0 0 0 0 0 0 0 0 0 0 0 0 0 127 0" result="hardAlpha"/>
<feOffset dx="-0.1" dy="0.1"/>
<feGaussianBlur stdDeviation="0.075"/>
<feComposite in2="hardAlpha" operator="arithmetic" k2="-1" k3="1"/>
<feColorMatrix type="matrix" values="0 0 0 0 1 0 0 0 0 1 0 0 0 0 1 0 0 0 1 0"/>
<feBlend mode="normal" in2="effect1_innerShadow_514_1597" result="effect2_innerShadow_514_1597"/>
</filter>
<filter id="filter4_ii_514_1597" x="12.065" y="3.50449" width="31.8641" height="21.1453" filterUnits="userSpaceOnUse" color-interpolation-filters="sRGB">
<feFlood flood-opacity="0" result="BackgroundImageFix"/>
<feBlend mode="normal" in="SourceGraphic" in2="BackgroundImageFix" result="shape"/>
<feColorMatrix in="SourceAlpha" type="matrix" values="0 0 0 0 0 0 0 0 0 0 0 0 0 0 0 0 0 0 127 0" result="hardAlpha"/>
<feOffset dx="0.1" dy="-0.1"/>
<feGaussianBlur stdDeviation="0.125"/>
<feComposite in2="hardAlpha" operator="arithmetic" k2="-1" k3="1"/>
<feColorMatrix type="matrix" values="0 0 0 0 0.607843 0 0 0 0 0.568627 0 0 0 0 0.666667 0 0 0 1 0"/>
<feBlend mode="normal" in2="shape" result="effect1_innerShadow_514_1597"/>
<feColorMatrix in="SourceAlpha" type="matrix" values="0 0 0 0 0 0 0 0 0 0 0 0 0 0 0 0 0 0 127 0" result="hardAlpha"/>
<feOffset dx="-0.1" dy="0.1"/>
<feGaussianBlur stdDeviation="0.075"/>
<feComposite in2="hardAlpha" operator="arithmetic" k2="-1" k3="1"/>
<feColorMatrix type="matrix" values="0 0 0 0 1 0 0 0 0 1 0 0 0 0 1 0 0 0 1 0"/>
<feBlend mode="normal" in2="effect1_innerShadow_514_1597" result="effect2_innerShadow_514_1597"/>
</filter>
<filter id="filter5_i_514_1597" x="15.8291" y="6.97246" width="10.427" height="12.2287" filterUnits="userSpaceOnUse" color-interpolation-filters="sRGB">
<feFlood flood-opacity="0" result="BackgroundImageFix"/>
<feBlend mode="normal" in="SourceGraphic" in2="BackgroundImageFix" result="shape"/>
<feColorMatrix in="SourceAlpha" type="matrix" values="0 0 0 0 0 0 0 0 0 0 0 0 0 0 0 0 0 0 127 0" result="hardAlpha"/>
<feOffset dx="0.05" dy="-0.05"/>
<feGaussianBlur stdDeviation="0.025"/>
<feComposite in2="hardAlpha" operator="arithmetic" k2="-1" k3="1"/>
<feColorMatrix type="matrix" values="0 0 0 0 0.478431 0 0 0 0 0.505882 0 0 0 0 0.717647 0 0 0 1 0"/>
<feBlend mode="normal" in2="shape" result="effect1_innerShadow_514_1597"/>
</filter>
<filter id="filter6_i_514_1597" x="29.665" y="6.97246" width="10.6184" height="1.81367" filterUnits="userSpaceOnUse" color-interpolation-filters="sRGB">
<feFlood flood-opacity="0" result="BackgroundImageFix"/>
<feBlend mode="normal" in="SourceGraphic" in2="BackgroundImageFix" result="shape"/>
<feColorMatrix in="SourceAlpha" type="matrix" values="0 0 0 0 0 0 0 0 0 0 0 0 0 0 0 0 0 0 127 0" result="hardAlpha"/>
<feOffset dx="0.05" dy="-0.05"/>
<feGaussianBlur stdDeviation="0.05"/>
<feComposite in2="hardAlpha" operator="arithmetic" k2="-1" k3="1"/>
<feColorMatrix type="matrix" values="0 0 0 0 0.592157 0 0 0 0 0.545098 0 0 0 0 0.639216 0 0 0 1 0"/>
<feBlend mode="normal" in2="shape" result="effect1_innerShadow_514_1597"/>
</filter>
<filter id="filter7_i_514_1597" x="29.665" y="10.4588" width="10.6184" height="1.81367" filterUnits="userSpaceOnUse" color-interpolation-filters="sRGB">
<feFlood flood-opacity="0" result="BackgroundImageFix"/>
<feBlend mode="normal" in="SourceGraphic" in2="BackgroundImageFix" result="shape"/>
<feColorMatrix in="SourceAlpha" type="matrix" values="0 0 0 0 0 0 0 0 0 0 0 0 0 0 0 0 0 0 127 0" result="hardAlpha"/>
<feOffset dx="0.05" dy="-0.05"/>
<feGaussianBlur stdDeviation="0.05"/>
<feComposite in2="hardAlpha" operator="arithmetic" k2="-1" k3="1"/>
<feColorMatrix type="matrix" values="0 0 0 0 0.592157 0 0 0 0 0.545098 0 0 0 0 0.639216 0 0 0 1 0"/>
<feBlend mode="normal" in2="shape" result="effect1_innerShadow_514_1597"/>
</filter>
<filter id="filter8_i_514_1597" x="29.665" y="13.8631" width="10.6184" height="1.81367" filterUnits="userSpaceOnUse" color-interpolation-filters="sRGB">
<feFlood flood-opacity="0" result="BackgroundImageFix"/>
<feBlend mode="normal" in="SourceGraphic" in2="BackgroundImageFix" result="shape"/>
<feColorMatrix in="SourceAlpha" type="matrix" values="0 0 0 0 0 0 0 0 0 0 0 0 0 0 0 0 0 0 127 0" result="hardAlpha"/>
<feOffset dx="0.05" dy="-0.05"/>
<feGaussianBlur stdDeviation="0.05"/>
<feComposite in2="hardAlpha" operator="arithmetic" k2="-1" k3="1"/>
<feColorMatrix type="matrix" values="0 0 0 0 0.592157 0 0 0 0 0.545098 0 0 0 0 0.639216 0 0 0 1 0"/>
<feBlend mode="normal" in2="shape" result="effect1_innerShadow_514_1597"/>
</filter>
<filter id="filter9_i_514_1597" x="29.665" y="17.3875" width="10.6184" height="1.81367" filterUnits="userSpaceOnUse" color-interpolation-filters="sRGB">
<feFlood flood-opacity="0" result="BackgroundImageFix"/>
<feBlend mode="normal" in="SourceGraphic" in2="BackgroundImageFix" result="shape"/>
<feColorMatrix in="SourceAlpha" type="matrix" values="0 0 0 0 0 0 0 0 0 0 0 0 0 0 0 0 0 0 127 0" result="hardAlpha"/>
<feOffset dx="0.05" dy="-0.05"/>
<feGaussianBlur stdDeviation="0.05"/>
<feComposite in2="hardAlpha" operator="arithmetic" k2="-1" k3="1"/>
<feColorMatrix type="matrix" values="0 0 0 0 0.592157 0 0 0 0 0.545098 0 0 0 0 0.639216 0 0 0 1 0"/>
<feBlend mode="normal" in2="shape" result="effect1_innerShadow_514_1597"/>
</filter>
<filter id="filter10_f_514_1597" x="16.6596" y="27.8686" width="2.68672" height="2.68672" filterUnits="userSpaceOnUse" color-interpolation-filters="sRGB">
<feFlood flood-opacity="0" result="BackgroundImageFix"/>
<feBlend mode="normal" in="SourceGraphic" in2="BackgroundImageFix" result="shape"/>
<feGaussianBlur stdDeviation="0.2" result="effect1_foregroundBlur_514_1597"/>
</filter>
<filter id="filter11_f_514_1597" x="35.8275" y="27.8686" width="2.68672" height="2.68672" filterUnits="userSpaceOnUse" color-interpolation-filters="sRGB">
<feFlood flood-opacity="0" result="BackgroundImageFix"/>
<feBlend mode="normal" in="SourceGraphic" in2="BackgroundImageFix" result="shape"/>
<feGaussianBlur stdDeviation="0.2" result="effect1_foregroundBlur_514_1597"/>
</filter>
<linearGradient id="paint0_linear_514_1597" x1="28.0001" y1="19.2012" x2="28.0001" y2="51.4015" gradientUnits="userSpaceOnUse">
<stop stop-color="#5A4D99"/>
<stop offset="1" stop-color="#583F79"/>
</linearGradient>
<linearGradient id="paint1_linear_514_1597" x1="26.6709" y1="25.6318" x2="26.6709" y2="47.9561" gradientUnits="userSpaceOnUse">
<stop stop-color="#402A5D"/>
<stop offset="1" stop-color="#3F2E62"/>
</linearGradient>
<radialGradient id="paint2_radial_514_1597" cx="0" cy="0" r="1" gradientUnits="userSpaceOnUse" gradientTransform="translate(17.1689 28.0501) rotate(-116.569) scale(4.46276 1.4422)">
<stop stop-color="#C0B2CF"/>
<stop offset="1" stop-color="#E0D6EA" stop-opacity="0"/>
</radialGradient>
<radialGradient id="paint3_radial_514_1597" cx="0" cy="0" r="1" gradientUnits="userSpaceOnUse" gradientTransform="translate(36.501 28.2141) rotate(-113.334) scale(3.0375 0.981607)">
<stop offset="0.137439" stop-color="#C0B2CF"/>
<stop offset="1" stop-color="#E0D6EA" stop-opacity="0"/>
</radialGradient>
<radialGradient id="paint4_radial_514_1597" cx="0" cy="0" r="1" gradientUnits="userSpaceOnUse" gradientTransform="translate(36.8838 22.8271) rotate(113.015) scale(3.35705 1.62939)">
<stop offset="0.134059" stop-color="#998BA6"/>
<stop offset="1" stop-color="#E0D6E9" stop-opacity="0"/>
</radialGradient>
<radialGradient id="paint5_radial_514_1597" cx="0" cy="0" r="1" gradientUnits="userSpaceOnUse" gradientTransform="translate(17.7705 22.7725) rotate(117.588) scale(3.42452 1.66213)">
<stop offset="0.174405" stop-color="#998BA6"/>
<stop offset="1" stop-color="#E0D6E9" stop-opacity="0"/>
</radialGradient>
<linearGradient id="paint6_linear_514_1597" x1="21.0176" y1="7.02246" x2="21.0176" y2="19.2011" gradientUnits="userSpaceOnUse">
<stop stop-color="#3EADFF"/>
<stop offset="1" stop-color="#3E82D6"/>
</linearGradient>
<linearGradient id="paint7_linear_514_1597" x1="34.9492" y1="7.02246" x2="34.9492" y2="8.78613" gradientUnits="userSpaceOnUse">
<stop stop-color="#A69EAE"/>
<stop offset="1" stop-color="#A69EAE"/>
</linearGradient>
<linearGradient id="paint8_linear_514_1597" x1="34.9492" y1="10.5088" x2="34.9492" y2="12.2725" gradientUnits="userSpaceOnUse">
<stop stop-color="#A69EAE"/>
<stop offset="1" stop-color="#A69EAE"/>
</linearGradient>
<linearGradient id="paint9_linear_514_1597" x1="34.9492" y1="13.9131" x2="34.9492" y2="15.6768" gradientUnits="userSpaceOnUse">
<stop stop-color="#A69EAE"/>
<stop offset="1" stop-color="#A69EAE"/>
</linearGradient>
<linearGradient id="paint10_linear_514_1597" x1="34.9492" y1="17.4375" x2="34.9492" y2="19.2012" gradientUnits="userSpaceOnUse">
<stop stop-color="#A69EAE"/>
<stop offset="1" stop-color="#A69EAE"/>
</linearGradient>
<radialGradient id="paint11_radial_514_1597" cx="0" cy="0" r="1" gradientUnits="userSpaceOnUse" gradientTransform="translate(19.3701 23.9482) rotate(90) scale(5.46875 1.41082)">
<stop offset="0.202128" stop-color="#433E58"/>
<stop offset="1" stop-color="#2C2242"/>
</radialGradient>
<radialGradient id="paint12_radial_514_1597" cx="0" cy="0" r="1" gradientUnits="userSpaceOnUse" gradientTransform="translate(38.4561 23.9482) rotate(90) scale(5.46875 1.41082)">
<stop offset="0.202128" stop-color="#433E58"/>
<stop offset="1" stop-color="#2C2242"/>
</radialGradient>
</defs>
</svg>
