<svg width="56" height="56" viewBox="0 0 56 56" fill="none" xmlns="http://www.w3.org/2000/svg">
<g filter="url(#filter0_i_514_1600)">
<path d="M43.75 11.2002V6.8252H12.25V11.2002C12.25 18.2002 17.15 23.9752 23.625 25.5502C24.15 25.7252 24.5 26.2502 24.5 26.7752V28.8752C24.5 29.4002 24.15 29.9252 23.625 29.9252C17.15 31.5002 12.25 37.2752 12.25 44.2752V49.0002H43.75V44.2752C43.75 37.2752 38.85 31.5002 32.375 29.9252C31.85 29.7502 31.5 29.4002 31.5 28.8752V26.7752C31.5 26.2502 31.85 25.7252 32.375 25.7252C38.85 23.9752 43.75 18.2002 43.75 11.2002Z" fill="#9FD6FF"/>
<path d="M43.75 11.2002V6.8252H12.25V11.2002C12.25 18.2002 17.15 23.9752 23.625 25.5502C24.15 25.7252 24.5 26.2502 24.5 26.7752V28.8752C24.5 29.4002 24.15 29.9252 23.625 29.9252C17.15 31.5002 12.25 37.2752 12.25 44.2752V49.0002H43.75V44.2752C43.75 37.2752 38.85 31.5002 32.375 29.9252C31.85 29.7502 31.5 29.4002 31.5 28.8752V26.7752C31.5 26.2502 31.85 25.7252 32.375 25.7252C38.85 23.9752 43.75 18.2002 43.75 11.2002Z" fill="url(#paint0_radial_514_1600)"/>
<path d="M43.75 11.2002V6.8252H12.25V11.2002C12.25 18.2002 17.15 23.9752 23.625 25.5502C24.15 25.7252 24.5 26.2502 24.5 26.7752V28.8752C24.5 29.4002 24.15 29.9252 23.625 29.9252C17.15 31.5002 12.25 37.2752 12.25 44.2752V49.0002H43.75V44.2752C43.75 37.2752 38.85 31.5002 32.375 29.9252C31.85 29.7502 31.5 29.4002 31.5 28.8752V26.7752C31.5 26.2502 31.85 25.7252 32.375 25.7252C38.85 23.9752 43.75 18.2002 43.75 11.2002Z" fill="url(#paint1_radial_514_1600)"/>
</g>
<path d="M43.75 7H12.25C11.2 7 10.5 6.3 10.5 5.25C10.5 4.2 11.2 3.5 12.25 3.5H43.75C44.8 3.5 45.5 4.2 45.5 5.25C45.5 6.3 44.8 7 43.75 7Z" fill="url(#paint2_radial_514_1600)"/>
<path d="M43.75 7H12.25C11.2 7 10.5 6.3 10.5 5.25C10.5 4.2 11.2 3.5 12.25 3.5H43.75C44.8 3.5 45.5 4.2 45.5 5.25C45.5 6.3 44.8 7 43.75 7Z" fill="url(#paint3_linear_514_1600)"/>
<path d="M43.75 7H12.25C11.2 7 10.5 6.3 10.5 5.25C10.5 4.2 11.2 3.5 12.25 3.5H43.75C44.8 3.5 45.5 4.2 45.5 5.25C45.5 6.3 44.8 7 43.75 7Z" fill="url(#paint4_linear_514_1600)"/>
<path d="M43.75 52.5H12.25C11.2 52.5 10.5 51.8 10.5 50.75C10.5 49.7 11.2 49 12.25 49H43.75C44.8 49 45.5 49.7 45.5 50.75C45.5 51.8 44.8 52.5 43.75 52.5Z" fill="url(#paint5_radial_514_1600)"/>
<path d="M43.75 52.5H12.25C11.2 52.5 10.5 51.8 10.5 50.75C10.5 49.7 11.2 49 12.25 49H43.75C44.8 49 45.5 49.7 45.5 50.75C45.5 51.8 44.8 52.5 43.75 52.5Z" fill="url(#paint6_linear_514_1600)"/>
<path d="M43.75 52.5H12.25C11.2 52.5 10.5 51.8 10.5 50.75C10.5 49.7 11.2 49 12.25 49H43.75C44.8 49 45.5 49.7 45.5 50.75C45.5 51.8 44.8 52.5 43.75 52.5Z" fill="url(#paint7_linear_514_1600)"/>
<path d="M39.2 46.8997C38.325 46.8997 37.625 46.1997 37.625 45.3247C37.275 41.9997 35.525 37.4497 31.325 35.8747C30.45 35.5247 30.1 34.6497 30.45 33.7747C30.8 32.8997 31.675 32.5497 32.55 32.8997C35 33.7747 37.1 35.5247 38.5 37.9747C39.9 40.0747 40.6 42.5247 40.775 45.3247C40.95 46.0247 40.25 46.8997 39.2 46.8997Z" fill="url(#paint8_linear_514_1600)"/>
<g filter="url(#filter1_i_514_1600)">
<path d="M29.75 38.85V25.9C29.75 25.025 30.275 24.325 31.15 24.15C36.75 22.925 40.95 18.375 41.825 12.6C42 11.55 41.125 10.5 40.075 10.5H15.925C14.875 10.5 14 11.55 14.175 12.6C15.05 18.375 19.25 22.925 24.85 24.15C25.725 24.325 26.25 25.025 26.25 25.9C26.25 28.875 26.25 35.875 26.25 38.85C26.25 39.725 25.725 40.425 24.85 40.6C21.525 41.3 18.725 43.225 16.8 45.85C15.75 47.25 16.8 49 18.375 49H37.625C39.2 49 40.25 47.25 39.2 46.025C37.275 43.4 34.3 41.475 31.15 40.775C30.275 40.425 29.75 39.725 29.75 38.85Z" fill="url(#paint9_radial_514_1600)"/>
<path d="M29.75 38.85V25.9C29.75 25.025 30.275 24.325 31.15 24.15C36.75 22.925 40.95 18.375 41.825 12.6C42 11.55 41.125 10.5 40.075 10.5H15.925C14.875 10.5 14 11.55 14.175 12.6C15.05 18.375 19.25 22.925 24.85 24.15C25.725 24.325 26.25 25.025 26.25 25.9C26.25 28.875 26.25 35.875 26.25 38.85C26.25 39.725 25.725 40.425 24.85 40.6C21.525 41.3 18.725 43.225 16.8 45.85C15.75 47.25 16.8 49 18.375 49H37.625C39.2 49 40.25 47.25 39.2 46.025C37.275 43.4 34.3 41.475 31.15 40.775C30.275 40.425 29.75 39.725 29.75 38.85Z" fill="url(#paint10_radial_514_1600)"/>
<path d="M29.75 38.85V25.9C29.75 25.025 30.275 24.325 31.15 24.15C36.75 22.925 40.95 18.375 41.825 12.6C42 11.55 41.125 10.5 40.075 10.5H15.925C14.875 10.5 14 11.55 14.175 12.6C15.05 18.375 19.25 22.925 24.85 24.15C25.725 24.325 26.25 25.025 26.25 25.9C26.25 28.875 26.25 35.875 26.25 38.85C26.25 39.725 25.725 40.425 24.85 40.6C21.525 41.3 18.725 43.225 16.8 45.85C15.75 47.25 16.8 49 18.375 49H37.625C39.2 49 40.25 47.25 39.2 46.025C37.275 43.4 34.3 41.475 31.15 40.775C30.275 40.425 29.75 39.725 29.75 38.85Z" fill="url(#paint11_radial_514_1600)"/>
</g>
<path d="M29.75 38.85V25.9C29.75 25.025 30.275 24.325 31.15 24.15C36.75 22.925 40.95 18.375 41.825 12.6C42 11.55 41.125 10.5 40.075 10.5H15.925C14.875 10.5 14 11.55 14.175 12.6C15.05 18.375 19.25 22.925 24.85 24.15C25.725 24.325 26.25 25.025 26.25 25.9C26.25 28.875 26.25 35.875 26.25 38.85C26.25 39.725 25.725 40.425 24.85 40.6C21.525 41.3 18.725 43.225 16.8 45.85C15.75 47.25 16.8 49 18.375 49H37.625C39.2 49 40.25 47.25 39.2 46.025C37.275 43.4 34.3 41.475 31.15 40.775C30.275 40.425 29.75 39.725 29.75 38.85Z" fill="url(#paint12_radial_514_1600)"/>
<path d="M29.75 38.85V25.9C29.75 25.025 30.275 24.325 31.15 24.15C36.75 22.925 40.95 18.375 41.825 12.6C42 11.55 41.125 10.5 40.075 10.5H15.925C14.875 10.5 14 11.55 14.175 12.6C15.05 18.375 19.25 22.925 24.85 24.15C25.725 24.325 26.25 25.025 26.25 25.9C26.25 28.875 26.25 35.875 26.25 38.85C26.25 39.725 25.725 40.425 24.85 40.6C21.525 41.3 18.725 43.225 16.8 45.85C15.75 47.25 16.8 49 18.375 49H37.625C39.2 49 40.25 47.25 39.2 46.025C37.275 43.4 34.3 41.475 31.15 40.775C30.275 40.425 29.75 39.725 29.75 38.85Z" fill="url(#paint13_radial_514_1600)"/>
<path d="M29.75 38.85V25.9C29.75 25.025 30.275 24.325 31.15 24.15C36.75 22.925 40.95 18.375 41.825 12.6C42 11.55 41.125 10.5 40.075 10.5H15.925C14.875 10.5 14 11.55 14.175 12.6C15.05 18.375 19.25 22.925 24.85 24.15C25.725 24.325 26.25 25.025 26.25 25.9C26.25 28.875 26.25 35.875 26.25 38.85C26.25 39.725 25.725 40.425 24.85 40.6C21.525 41.3 18.725 43.225 16.8 45.85C15.75 47.25 16.8 49 18.375 49H37.625C39.2 49 40.25 47.25 39.2 46.025C37.275 43.4 34.3 41.475 31.15 40.775C30.275 40.425 29.75 39.725 29.75 38.85Z" fill="url(#paint14_radial_514_1600)"/>
<path d="M29.75 38.85V25.9C29.75 25.025 30.275 24.325 31.15 24.15C36.75 22.925 40.95 18.375 41.825 12.6C42 11.55 41.125 10.5 40.075 10.5H15.925C14.875 10.5 14 11.55 14.175 12.6C15.05 18.375 19.25 22.925 24.85 24.15C25.725 24.325 26.25 25.025 26.25 25.9C26.25 28.875 26.25 35.875 26.25 38.85C26.25 39.725 25.725 40.425 24.85 40.6C21.525 41.3 18.725 43.225 16.8 45.85C15.75 47.25 16.8 49 18.375 49H37.625C39.2 49 40.25 47.25 39.2 46.025C37.275 43.4 34.3 41.475 31.15 40.775C30.275 40.425 29.75 39.725 29.75 38.85Z" fill="url(#paint15_linear_514_1600)"/>
<path d="M29.75 38.85V25.9C29.75 25.025 30.275 24.325 31.15 24.15C36.75 22.925 40.95 18.375 41.825 12.6C42 11.55 41.125 10.5 40.075 10.5H15.925C14.875 10.5 14 11.55 14.175 12.6C15.05 18.375 19.25 22.925 24.85 24.15C25.725 24.325 26.25 25.025 26.25 25.9C26.25 28.875 26.25 35.875 26.25 38.85C26.25 39.725 25.725 40.425 24.85 40.6C21.525 41.3 18.725 43.225 16.8 45.85C15.75 47.25 16.8 49 18.375 49H37.625C39.2 49 40.25 47.25 39.2 46.025C37.275 43.4 34.3 41.475 31.15 40.775C30.275 40.425 29.75 39.725 29.75 38.85Z" fill="url(#paint16_radial_514_1600)"/>
<path d="M29.75 38.85V25.9C29.75 25.025 30.275 24.325 31.15 24.15C36.75 22.925 40.95 18.375 41.825 12.6C42 11.55 41.125 10.5 40.075 10.5H15.925C14.875 10.5 14 11.55 14.175 12.6C15.05 18.375 19.25 22.925 24.85 24.15C25.725 24.325 26.25 25.025 26.25 25.9C26.25 28.875 26.25 35.875 26.25 38.85C26.25 39.725 25.725 40.425 24.85 40.6C21.525 41.3 18.725 43.225 16.8 45.85C15.75 47.25 16.8 49 18.375 49H37.625C39.2 49 40.25 47.25 39.2 46.025C37.275 43.4 34.3 41.475 31.15 40.775C30.275 40.425 29.75 39.725 29.75 38.85Z" fill="url(#paint17_linear_514_1600)"/>
<path d="M29.75 38.85V25.9C29.75 25.025 30.275 24.325 31.15 24.15C36.75 22.925 40.95 18.375 41.825 12.6C42 11.55 41.125 10.5 40.075 10.5H15.925C14.875 10.5 14 11.55 14.175 12.6C15.05 18.375 19.25 22.925 24.85 24.15C25.725 24.325 26.25 25.025 26.25 25.9C26.25 28.875 26.25 35.875 26.25 38.85C26.25 39.725 25.725 40.425 24.85 40.6C21.525 41.3 18.725 43.225 16.8 45.85C15.75 47.25 16.8 49 18.375 49H37.625C39.2 49 40.25 47.25 39.2 46.025C37.275 43.4 34.3 41.475 31.15 40.775C30.275 40.425 29.75 39.725 29.75 38.85Z" fill="url(#paint18_linear_514_1600)"/>
<path d="M29.75 38.85V25.9C29.75 25.025 30.275 24.325 31.15 24.15C36.75 22.925 40.95 18.375 41.825 12.6C42 11.55 41.125 10.5 40.075 10.5H15.925C14.875 10.5 14 11.55 14.175 12.6C15.05 18.375 19.25 22.925 24.85 24.15C25.725 24.325 26.25 25.025 26.25 25.9C26.25 28.875 26.25 35.875 26.25 38.85C26.25 39.725 25.725 40.425 24.85 40.6C21.525 41.3 18.725 43.225 16.8 45.85C15.75 47.25 16.8 49 18.375 49H37.625C39.2 49 40.25 47.25 39.2 46.025C37.275 43.4 34.3 41.475 31.15 40.775C30.275 40.425 29.75 39.725 29.75 38.85Z" fill="url(#paint19_radial_514_1600)"/>
<path d="M39.2 8.5752C38.325 8.5752 37.625 9.2752 37.625 10.1502C37.275 13.4752 35.525 18.0252 31.325 19.6002C30.45 19.9502 30.1 20.8252 30.45 21.7002C30.8 22.5752 31.675 22.9252 32.55 22.5752C35 21.7002 37.1 19.9502 38.5 17.5002C39.9 15.4002 40.6 12.9502 40.775 10.1502C40.95 9.4502 40.25 8.7502 39.2 8.5752Z" fill="url(#paint20_linear_514_1600)"/>
<g filter="url(#filter2_f_514_1600)">
<path d="M28.1712 38.0095C28.1712 39.9068 27.7086 40.7677 27.4774 40.9609H30.0321C29.3256 40.2442 29.2331 38.6946 29.2751 38.0095L29.2751 25.8346C29.2751 24.4854 29.969 23.5332 30.3159 23.5156H27.2566C28.0388 24.1059 28.1923 25.5008 28.1712 25.8346V38.0095Z" fill="url(#paint21_linear_514_1600)"/>
</g>
<defs>
<filter id="filter0_i_514_1600" x="12.25" y="6.8252" width="31.5" height="42.1748" filterUnits="userSpaceOnUse" color-interpolation-filters="sRGB">
<feFlood flood-opacity="0" result="BackgroundImageFix"/>
<feBlend mode="normal" in="SourceGraphic" in2="BackgroundImageFix" result="shape"/>
<feColorMatrix in="SourceAlpha" type="matrix" values="0 0 0 0 0 0 0 0 0 0 0 0 0 0 0 0 0 0 127 0" result="hardAlpha"/>
<feOffset/>
<feGaussianBlur stdDeviation="0.5"/>
<feComposite in2="hardAlpha" operator="arithmetic" k2="-1" k3="1"/>
<feColorMatrix type="matrix" values="0 0 0 0 0.619608 0 0 0 0 0.756863 0 0 0 0 0.87451 0 0 0 1 0"/>
<feBlend mode="normal" in2="shape" result="effect1_innerShadow_514_1600"/>
</filter>
<filter id="filter1_i_514_1600" x="14.1526" y="10.5" width="27.9948" height="38.5" filterUnits="userSpaceOnUse" color-interpolation-filters="sRGB">
<feFlood flood-opacity="0" result="BackgroundImageFix"/>
<feBlend mode="normal" in="SourceGraphic" in2="BackgroundImageFix" result="shape"/>
<feColorMatrix in="SourceAlpha" type="matrix" values="0 0 0 0 0 0 0 0 0 0 0 0 0 0 0 0 0 0 127 0" result="hardAlpha"/>
<feOffset dx="0.3"/>
<feGaussianBlur stdDeviation="0.3"/>
<feComposite in2="hardAlpha" operator="arithmetic" k2="-1" k3="1"/>
<feColorMatrix type="matrix" values="0 0 0 0 0.705882 0 0 0 0 0.541176 0 0 0 0 0.384314 0 0 0 1 0"/>
<feBlend mode="normal" in2="shape" result="effect1_innerShadow_514_1600"/>
</filter>
<filter id="filter2_f_514_1600" x="26.5066" y="22.7656" width="4.55933" height="18.9453" filterUnits="userSpaceOnUse" color-interpolation-filters="sRGB">
<feFlood flood-opacity="0" result="BackgroundImageFix"/>
<feBlend mode="normal" in="SourceGraphic" in2="BackgroundImageFix" result="shape"/>
<feGaussianBlur stdDeviation="0.375" result="effect1_foregroundBlur_514_1600"/>
</filter>
<radialGradient id="paint0_radial_514_1600" cx="0" cy="0" r="1" gradientUnits="userSpaceOnUse" gradientTransform="translate(35.7569 39.3781) rotate(132.749) scale(11.4277 9.32345)">
<stop stop-color="#C4F4FF"/>
<stop offset="1" stop-color="#C4F4FF" stop-opacity="0"/>
</radialGradient>
<radialGradient id="paint1_radial_514_1600" cx="0" cy="0" r="1" gradientUnits="userSpaceOnUse" gradientTransform="translate(37.2866 8.88436) rotate(90) scale(9.26671 19.2701)">
<stop stop-color="#C4F4FF"/>
<stop offset="1" stop-color="#C4F4FF" stop-opacity="0"/>
</radialGradient>
<radialGradient id="paint2_radial_514_1600" cx="0" cy="0" r="1" gradientUnits="userSpaceOnUse" gradientTransform="translate(35.9844 5.25) rotate(90) scale(1.75 22.0937)">
<stop stop-color="#CDCFCF"/>
<stop offset="1" stop-color="#A9A9A9"/>
</radialGradient>
<linearGradient id="paint3_linear_514_1600" x1="6.89062" y1="5.71463" x2="28" y2="5.71463" gradientUnits="userSpaceOnUse">
<stop stop-color="#707477"/>
<stop offset="1" stop-color="#707477" stop-opacity="0"/>
</linearGradient>
<linearGradient id="paint4_linear_514_1600" x1="28" y1="8.44901" x2="28" y2="6.15213" gradientUnits="userSpaceOnUse">
<stop stop-color="#707477"/>
<stop offset="1" stop-color="#707477" stop-opacity="0"/>
</linearGradient>
<radialGradient id="paint5_radial_514_1600" cx="0" cy="0" r="1" gradientUnits="userSpaceOnUse" gradientTransform="translate(35.9844 50.1209) rotate(90) scale(1.96875 24.8555)">
<stop stop-color="#CDCFCF"/>
<stop offset="1" stop-color="#A9A9A9"/>
</radialGradient>
<linearGradient id="paint6_linear_514_1600" x1="6.89062" y1="51.2146" x2="28" y2="51.2146" gradientUnits="userSpaceOnUse">
<stop stop-color="#707477"/>
<stop offset="1" stop-color="#707477" stop-opacity="0"/>
</linearGradient>
<linearGradient id="paint7_linear_514_1600" x1="28" y1="53.0193" x2="28" y2="51.324" gradientUnits="userSpaceOnUse">
<stop stop-color="#7CA0B3"/>
<stop offset="1" stop-color="#7CA0B3" stop-opacity="0"/>
</linearGradient>
<linearGradient id="paint8_linear_514_1600" x1="34.8907" y1="35.355" x2="36.3125" y2="46.8997" gradientUnits="userSpaceOnUse">
<stop stop-color="white"/>
<stop offset="0.821922" stop-color="white" stop-opacity="0"/>
</linearGradient>
<radialGradient id="paint9_radial_514_1600" cx="0" cy="0" r="1" gradientUnits="userSpaceOnUse" gradientTransform="translate(34.5992 41.7471) rotate(90) scale(20.1272 19.8383)">
<stop offset="0.088" stop-color="#FFD68C"/>
<stop offset="1" stop-color="#E69E45"/>
</radialGradient>
<radialGradient id="paint10_radial_514_1600" cx="0" cy="0" r="1" gradientUnits="userSpaceOnUse" gradientTransform="translate(37.1955 9.6449) rotate(127.981) scale(14.9425 12.2567)">
<stop stop-color="#F3C169"/>
<stop offset="1" stop-color="#F3C169" stop-opacity="0"/>
</radialGradient>
<radialGradient id="paint11_radial_514_1600" cx="0" cy="0" r="1" gradientUnits="userSpaceOnUse" gradientTransform="translate(43.3749 35.9504) rotate(164.385) scale(31.7052 55.2422)">
<stop offset="0.667023" stop-color="#B7845C" stop-opacity="0"/>
<stop offset="1" stop-color="#B7845C"/>
</radialGradient>
<radialGradient id="paint12_radial_514_1600" cx="0" cy="0" r="1" gradientUnits="userSpaceOnUse" gradientTransform="translate(18.4792 16.3062) rotate(-24.5429) scale(10.4664 11.2418)">
<stop stop-color="#B69E6D"/>
<stop offset="1" stop-color="#B69E6D" stop-opacity="0"/>
</radialGradient>
<radialGradient id="paint13_radial_514_1600" cx="0" cy="0" r="1" gradientUnits="userSpaceOnUse" gradientTransform="translate(36.3601 12.5223) rotate(180) scale(19.8684 2.02231)">
<stop stop-color="#FFE379"/>
<stop offset="0.40625" stop-color="#FFCB56"/>
<stop offset="1" stop-color="#FFCB56" stop-opacity="0"/>
</radialGradient>
<radialGradient id="paint14_radial_514_1600" cx="0" cy="0" r="1" gradientUnits="userSpaceOnUse" gradientTransform="translate(41.8474 9.37326) rotate(132.917) scale(20.3359 21.5015)">
<stop stop-color="#FFD968"/>
<stop offset="1" stop-color="#FFD968" stop-opacity="0"/>
</radialGradient>
<linearGradient id="paint15_linear_514_1600" x1="28" y1="10.2256" x2="28" y2="11.3876" gradientUnits="userSpaceOnUse">
<stop stop-color="#9E8563"/>
<stop offset="1" stop-color="#9E8563" stop-opacity="0"/>
</linearGradient>
<radialGradient id="paint16_radial_514_1600" cx="0" cy="0" r="1" gradientUnits="userSpaceOnUse" gradientTransform="translate(33.5374 47.003) rotate(90) scale(1.13065 13.0653)">
<stop stop-color="#FFD894"/>
<stop offset="1" stop-color="#FFD894" stop-opacity="0"/>
</radialGradient>
<linearGradient id="paint17_linear_514_1600" x1="28" y1="49.3899" x2="28" y2="46.8146" gradientUnits="userSpaceOnUse">
<stop stop-color="#C9895B"/>
<stop offset="1" stop-color="#C9895B" stop-opacity="0"/>
</linearGradient>
<linearGradient id="paint18_linear_514_1600" x1="28" y1="49.0543" x2="28" y2="48.7535" gradientUnits="userSpaceOnUse">
<stop stop-color="#54453F"/>
<stop offset="1" stop-color="#54453F" stop-opacity="0"/>
</linearGradient>
<radialGradient id="paint19_radial_514_1600" cx="0" cy="0" r="1" gradientUnits="userSpaceOnUse" gradientTransform="translate(30.8983 39.9761) rotate(-154.746) scale(3.20455 1.19097)">
<stop stop-color="#FFD87F"/>
<stop offset="1" stop-color="#FFD87F" stop-opacity="0"/>
</radialGradient>
<linearGradient id="paint20_linear_514_1600" x1="40.1407" y1="9.32421" x2="33.25" y2="22.0117" gradientUnits="userSpaceOnUse">
<stop stop-color="white"/>
<stop offset="0.821922" stop-color="white" stop-opacity="0"/>
</linearGradient>
<linearGradient id="paint21_linear_514_1600" x1="28.7863" y1="27.6719" x2="28.7863" y2="46.7578" gradientUnits="userSpaceOnUse">
<stop stop-color="#FFDF81"/>
<stop offset="1" stop-color="#FFDF81" stop-opacity="0"/>
</linearGradient>
</defs>
</svg>
