<svg width="56" height="56" viewBox="0 0 56 56" fill="none" xmlns="http://www.w3.org/2000/svg">
<g filter="url(#filter0_i_514_1598)">
<path d="M32.7013 43.4975C33.4699 43.1624 33.7896 42.6718 34.0207 42.3832C36.095 39.7923 31.6691 32.1019 25.3504 27.652C18.6535 21.8207 11.2798 19.8337 9.2055 22.4246C8.84947 22.8693 8.57046 23.475 8.45425 24.1586L4.51674 46.8129C4.38003 49.5746 5.43557 50.6241 5.9638 51.1367C6.92099 52.0658 8.78237 52.8559 10.7238 52.1723C18.216 49.2875 25.2348 46.7525 32.7013 43.4975Z" fill="url(#paint0_linear_514_1598)"/>
</g>
<path d="M32.7013 43.4975C33.4699 43.1624 33.7896 42.6718 34.0207 42.3832C36.095 39.7923 31.6691 32.1019 25.3504 27.652C18.6535 21.8207 11.2798 19.8337 9.2055 22.4246C8.84947 22.8693 8.57046 23.475 8.45425 24.1586L4.51674 46.8129C4.38003 49.5746 5.43557 50.6241 5.9638 51.1367C6.92099 52.0658 8.78237 52.8559 10.7238 52.1723C18.216 49.2875 25.2348 46.7525 32.7013 43.4975Z" fill="url(#paint1_linear_514_1598)"/>
<path d="M32.7013 43.4975C33.4699 43.1624 33.7896 42.6718 34.0207 42.3832C36.095 39.7923 31.6691 32.1019 25.3504 27.652C18.6535 21.8207 11.2798 19.8337 9.2055 22.4246C8.84947 22.8693 8.57046 23.475 8.45425 24.1586L4.51674 46.8129C4.38003 49.5746 5.43557 50.6241 5.9638 51.1367C6.92099 52.0658 8.78237 52.8559 10.7238 52.1723C18.216 49.2875 25.2348 46.7525 32.7013 43.4975Z" fill="url(#paint2_linear_514_1598)"/>
<path d="M32.7013 43.4975C33.4699 43.1624 33.7896 42.6718 34.0207 42.3832C36.095 39.7923 31.6691 32.1019 25.3504 27.652C18.6535 21.8207 11.2798 19.8337 9.2055 22.4246C8.84947 22.8693 8.57046 23.475 8.45425 24.1586L4.51674 46.8129C4.38003 49.5746 5.43557 50.6241 5.9638 51.1367C6.92099 52.0658 8.78237 52.8559 10.7238 52.1723C18.216 49.2875 25.2348 46.7525 32.7013 43.4975Z" fill="url(#paint3_linear_514_1598)"/>
<g filter="url(#filter1_f_514_1598)">
<ellipse cx="21.5219" cy="32.5912" rx="15.3517" ry="6.06238" transform="rotate(39.7456 21.5219 32.5912)" fill="url(#paint4_linear_514_1598)"/>
</g>
<g filter="url(#filter2_f_514_1598)">
<ellipse cx="21.9706" cy="31.8274" rx="14.2279" ry="5.10187" transform="rotate(39.7456 21.9706 31.8274)" fill="url(#paint5_linear_514_1598)"/>
<ellipse cx="21.9706" cy="31.8274" rx="14.2279" ry="5.10187" transform="rotate(39.7456 21.9706 31.8274)" fill="url(#paint6_radial_514_1598)"/>
<ellipse cx="21.9706" cy="31.8274" rx="14.2279" ry="5.10187" transform="rotate(39.7456 21.9706 31.8274)" fill="url(#paint7_radial_514_1598)"/>
</g>
<circle cx="26.1729" cy="28" r="2.10547" fill="url(#paint8_radial_514_1598)"/>
<circle cx="26.1729" cy="28" r="2.10547" fill="url(#paint9_radial_514_1598)"/>
<circle cx="43.4541" cy="40.0859" r="2.10547" fill="url(#paint10_radial_514_1598)"/>
<circle cx="43.4541" cy="40.0859" r="2.10547" fill="url(#paint11_radial_514_1598)"/>
<circle cx="43.4541" cy="40.0859" r="2.10547" fill="url(#paint12_radial_514_1598)"/>
<circle cx="41.6904" cy="12.2773" r="2.10547" fill="url(#paint13_radial_514_1598)"/>
<circle cx="41.6904" cy="12.2773" r="2.10547" fill="url(#paint14_radial_514_1598)"/>
<ellipse cx="17.4839" cy="5.89258" rx="2.10547" ry="2.10547" fill="url(#paint15_radial_514_1598)"/>
<ellipse cx="17.4839" cy="5.89258" rx="2.10547" ry="2.10547" fill="url(#paint16_radial_514_1598)"/>
<ellipse cx="17.4839" cy="5.89258" rx="2.10547" ry="2.10547" fill="url(#paint17_radial_514_1598)"/>
<circle cx="8.62451" cy="14.1914" r="2.10547" fill="url(#paint18_radial_514_1598)"/>
<circle cx="8.62451" cy="14.1914" r="2.10547" fill="url(#paint19_radial_514_1598)"/>
<path d="M27.917 45.5156C23.3566 45.1987 20.158 43.8338 14.9757 39.5522C10.5178 35.8691 8.3045 32.6015 7.56579 29.2695L6.70996 34.1935C7.05973 36.1206 8.56363 38.814 11.5441 41.5073C15.4422 45.0299 19.3234 47.523 23.1616 47.4137C24.7413 46.7968 26.3233 46.1678 27.917 45.5156Z" fill="url(#paint20_radial_514_1598)"/>
<path d="M18.2997 49.2854C16.1079 49.4076 13.1437 47.6194 10.0675 45.0628C7.44254 42.7933 6.14772 40.3276 5.8752 38.9971L5.0061 43.9974C5.22108 44.8427 5.87578 45.9916 7.77067 47.9339C9.88955 50.1058 12.0203 50.9509 13.2857 51.1913C14.1836 50.8491 15.0761 50.5102 15.9647 50.1728C16.7456 49.8763 17.5236 49.581 18.2997 49.2854Z" fill="url(#paint21_radial_514_1598)"/>
<g filter="url(#filter3_i_514_1598)">
<path fill-rule="evenodd" clip-rule="evenodd" d="M48.8304 22.9397C42.5342 21.7097 38.8137 24.5941 37.6344 25.8878C36.9507 26.6378 35.7885 26.6915 35.0386 26.0078C34.2886 25.3242 34.2349 24.162 34.9185 23.412C36.747 21.4062 41.6946 17.8012 49.535 19.3328C50.531 19.5274 51.1807 20.4926 50.9861 21.4886C50.7916 22.4845 49.8264 23.1342 48.8304 22.9397Z" fill="url(#paint22_radial_514_1598)"/>
<path fill-rule="evenodd" clip-rule="evenodd" d="M48.8304 22.9397C42.5342 21.7097 38.8137 24.5941 37.6344 25.8878C36.9507 26.6378 35.7885 26.6915 35.0386 26.0078C34.2886 25.3242 34.2349 24.162 34.9185 23.412C36.747 21.4062 41.6946 17.8012 49.535 19.3328C50.531 19.5274 51.1807 20.4926 50.9861 21.4886C50.7916 22.4845 49.8264 23.1342 48.8304 22.9397Z" fill="url(#paint23_radial_514_1598)"/>
</g>
<path fill-rule="evenodd" clip-rule="evenodd" d="M33.4321 3.64443C34.3492 3.68731 35.058 4.46559 35.0151 5.38276C34.9561 6.64553 34.7262 8.74915 34.1777 10.9962C33.7191 12.8743 33.0132 14.9575 31.9262 16.7435C32.1891 18.1369 32.1961 19.781 31.9076 21.6505C31.7675 22.5579 30.9184 23.18 30.011 23.04C29.1035 22.8999 28.4815 22.0507 28.6215 21.1433C28.6861 20.725 28.7318 20.3333 28.7613 19.9667C28.4386 20.135 28.1081 20.2669 27.7707 20.3612C26.4527 20.7294 25.1887 20.4742 24.2 19.8155C22.3215 18.5642 21.4553 15.8258 22.9094 13.5871C24.2926 11.4574 27.1754 10.8783 29.3676 12.3936C29.6203 12.5683 29.8577 12.7651 30.0789 12.9836C30.4286 12.0991 30.7162 11.1553 30.9475 10.2076C31.4396 8.19199 31.6435 6.30258 31.6937 5.22747C31.7366 4.3103 32.5149 3.60154 33.4321 3.64443ZM28.2745 16.1403C28.0222 15.6147 27.7224 15.2984 27.477 15.1288C26.7912 14.6547 26.0373 14.8755 25.6978 15.3982C25.3339 15.9586 25.5264 16.7039 26.0434 17.0483C26.2524 17.1875 26.5203 17.2582 26.8759 17.1588C27.1978 17.0689 27.6903 16.8078 28.2745 16.1403Z" fill="url(#paint24_linear_514_1598)"/>
<path fill-rule="evenodd" clip-rule="evenodd" d="M33.4321 3.64443C34.3492 3.68731 35.058 4.46559 35.0151 5.38276C34.9561 6.64553 34.7262 8.74915 34.1777 10.9962C33.7191 12.8743 33.0132 14.9575 31.9262 16.7435C32.1891 18.1369 32.1961 19.781 31.9076 21.6505C31.7675 22.5579 30.9184 23.18 30.011 23.04C29.1035 22.8999 28.4815 22.0507 28.6215 21.1433C28.6861 20.725 28.7318 20.3333 28.7613 19.9667C28.4386 20.135 28.1081 20.2669 27.7707 20.3612C26.4527 20.7294 25.1887 20.4742 24.2 19.8155C22.3215 18.5642 21.4553 15.8258 22.9094 13.5871C24.2926 11.4574 27.1754 10.8783 29.3676 12.3936C29.6203 12.5683 29.8577 12.7651 30.0789 12.9836C30.4286 12.0991 30.7162 11.1553 30.9475 10.2076C31.4396 8.19199 31.6435 6.30258 31.6937 5.22747C31.7366 4.3103 32.5149 3.60154 33.4321 3.64443ZM28.2745 16.1403C28.0222 15.6147 27.7224 15.2984 27.477 15.1288C26.7912 14.6547 26.0373 14.8755 25.6978 15.3982C25.3339 15.9586 25.5264 16.7039 26.0434 17.0483C26.2524 17.1875 26.5203 17.2582 26.8759 17.1588C27.1978 17.0689 27.6903 16.8078 28.2745 16.1403Z" fill="url(#paint25_radial_514_1598)"/>
<path fill-rule="evenodd" clip-rule="evenodd" d="M33.4321 3.64443C34.3492 3.68731 35.058 4.46559 35.0151 5.38276C34.9561 6.64553 34.7262 8.74915 34.1777 10.9962C33.7191 12.8743 33.0132 14.9575 31.9262 16.7435C32.1891 18.1369 32.1961 19.781 31.9076 21.6505C31.7675 22.5579 30.9184 23.18 30.011 23.04C29.1035 22.8999 28.4815 22.0507 28.6215 21.1433C28.6861 20.725 28.7318 20.3333 28.7613 19.9667C28.4386 20.135 28.1081 20.2669 27.7707 20.3612C26.4527 20.7294 25.1887 20.4742 24.2 19.8155C22.3215 18.5642 21.4553 15.8258 22.9094 13.5871C24.2926 11.4574 27.1754 10.8783 29.3676 12.3936C29.6203 12.5683 29.8577 12.7651 30.0789 12.9836C30.4286 12.0991 30.7162 11.1553 30.9475 10.2076C31.4396 8.19199 31.6435 6.30258 31.6937 5.22747C31.7366 4.3103 32.5149 3.60154 33.4321 3.64443ZM28.2745 16.1403C28.0222 15.6147 27.7224 15.2984 27.477 15.1288C26.7912 14.6547 26.0373 14.8755 25.6978 15.3982C25.3339 15.9586 25.5264 16.7039 26.0434 17.0483C26.2524 17.1875 26.5203 17.2582 26.8759 17.1588C27.1978 17.0689 27.6903 16.8078 28.2745 16.1403Z" fill="url(#paint26_radial_514_1598)"/>
<path fill-rule="evenodd" clip-rule="evenodd" d="M33.4321 3.64443C34.3492 3.68731 35.058 4.46559 35.0151 5.38276C34.9561 6.64553 34.7262 8.74915 34.1777 10.9962C33.7191 12.8743 33.0132 14.9575 31.9262 16.7435C32.1891 18.1369 32.1961 19.781 31.9076 21.6505C31.7675 22.5579 30.9184 23.18 30.011 23.04C29.1035 22.8999 28.4815 22.0507 28.6215 21.1433C28.6861 20.725 28.7318 20.3333 28.7613 19.9667C28.4386 20.135 28.1081 20.2669 27.7707 20.3612C26.4527 20.7294 25.1887 20.4742 24.2 19.8155C22.3215 18.5642 21.4553 15.8258 22.9094 13.5871C24.2926 11.4574 27.1754 10.8783 29.3676 12.3936C29.6203 12.5683 29.8577 12.7651 30.0789 12.9836C30.4286 12.0991 30.7162 11.1553 30.9475 10.2076C31.4396 8.19199 31.6435 6.30258 31.6937 5.22747C31.7366 4.3103 32.5149 3.60154 33.4321 3.64443ZM28.2745 16.1403C28.0222 15.6147 27.7224 15.2984 27.477 15.1288C26.7912 14.6547 26.0373 14.8755 25.6978 15.3982C25.3339 15.9586 25.5264 16.7039 26.0434 17.0483C26.2524 17.1875 26.5203 17.2582 26.8759 17.1588C27.1978 17.0689 27.6903 16.8078 28.2745 16.1403Z" fill="url(#paint27_radial_514_1598)"/>
<path fill-rule="evenodd" clip-rule="evenodd" d="M24.2228 39.5609C23.0254 38.8989 21.7773 38.0971 20.522 37.1714C22.4231 34.8149 25.8191 31.7242 30.247 29.4922C37.5226 25.8249 45.5445 27.8154 48.8132 29.1112C49.9363 29.5564 50.4858 30.8278 50.0406 31.9509C49.5953 33.074 48.324 33.6235 47.2009 33.1783C44.3993 32.0676 37.8479 30.5603 32.2163 33.399C28.5019 35.2713 25.7401 37.7885 24.2228 39.5609Z" fill="url(#paint28_linear_514_1598)"/>
<path fill-rule="evenodd" clip-rule="evenodd" d="M24.2228 39.5609C23.0254 38.8989 21.7773 38.0971 20.522 37.1714C22.4231 34.8149 25.8191 31.7242 30.247 29.4922C37.5226 25.8249 45.5445 27.8154 48.8132 29.1112C49.9363 29.5564 50.4858 30.8278 50.0406 31.9509C49.5953 33.074 48.324 33.6235 47.2009 33.1783C44.3993 32.0676 37.8479 30.5603 32.2163 33.399C28.5019 35.2713 25.7401 37.7885 24.2228 39.5609Z" fill="url(#paint29_radial_514_1598)"/>
<path fill-rule="evenodd" clip-rule="evenodd" d="M24.2228 39.5609C23.0254 38.8989 21.7773 38.0971 20.522 37.1714C22.4231 34.8149 25.8191 31.7242 30.247 29.4922C37.5226 25.8249 45.5445 27.8154 48.8132 29.1112C49.9363 29.5564 50.4858 30.8278 50.0406 31.9509C49.5953 33.074 48.324 33.6235 47.2009 33.1783C44.3993 32.0676 37.8479 30.5603 32.2163 33.399C28.5019 35.2713 25.7401 37.7885 24.2228 39.5609Z" fill="url(#paint30_radial_514_1598)"/>
<path fill-rule="evenodd" clip-rule="evenodd" d="M24.2228 39.5609C23.0254 38.8989 21.7773 38.0971 20.522 37.1714C22.4231 34.8149 25.8191 31.7242 30.247 29.4922C37.5226 25.8249 45.5445 27.8154 48.8132 29.1112C49.9363 29.5564 50.4858 30.8278 50.0406 31.9509C49.5953 33.074 48.324 33.6235 47.2009 33.1783C44.3993 32.0676 37.8479 30.5603 32.2163 33.399C28.5019 35.2713 25.7401 37.7885 24.2228 39.5609Z" fill="url(#paint31_radial_514_1598)"/>
<g filter="url(#filter4_i_514_1598)">
<path fill-rule="evenodd" clip-rule="evenodd" d="M17.8357 11.6438C17.2483 10.5881 15.9162 10.2085 14.8606 10.7959C13.8049 11.3834 13.4253 12.7154 14.0127 13.7711C14.8998 15.3652 15.992 17.6157 16.1318 20.5135C16.2537 23.0389 15.659 26.2419 13.2412 30.0839C14.0778 31.1911 15.088 32.3384 16.2435 33.4779C19.6524 28.5193 20.6839 24.0781 20.5017 20.3027C20.3134 16.3987 18.8353 13.4402 17.8357 11.6438Z" fill="url(#paint32_radial_514_1598)"/>
<path fill-rule="evenodd" clip-rule="evenodd" d="M17.8357 11.6438C17.2483 10.5881 15.9162 10.2085 14.8606 10.7959C13.8049 11.3834 13.4253 12.7154 14.0127 13.7711C14.8998 15.3652 15.992 17.6157 16.1318 20.5135C16.2537 23.0389 15.659 26.2419 13.2412 30.0839C14.0778 31.1911 15.088 32.3384 16.2435 33.4779C19.6524 28.5193 20.6839 24.0781 20.5017 20.3027C20.3134 16.3987 18.8353 13.4402 17.8357 11.6438Z" fill="url(#paint33_radial_514_1598)"/>
</g>
<path d="M22.4963 14.3699C22.6038 14.1042 22.7396 13.842 22.9056 13.5864C24.2888 11.4567 27.1717 10.8777 29.3638 12.3929C29.6166 12.5676 29.8539 12.7645 30.0751 12.9829C30.1466 12.8022 30.2154 12.619 30.2818 12.4338C30.285 12.445 30.2883 12.4561 30.2914 12.4672C29.8411 13.8857 28.8307 15.4041 28.2694 16.1367C28.0173 15.6129 27.7182 15.2974 27.4732 15.1281C26.7874 14.6541 26.0335 14.8749 25.6941 15.3975C25.6809 15.4178 25.6684 15.4384 25.6566 15.4592L22.4963 14.3699Z" fill="url(#paint34_radial_514_1598)"/>
<path d="M22.4963 14.3699C22.6038 14.1042 22.7396 13.842 22.9056 13.5864C24.2888 11.4567 27.1717 10.8777 29.3638 12.3929C29.6166 12.5676 29.8539 12.7645 30.0751 12.9829C30.1466 12.8022 30.2154 12.619 30.2818 12.4338C30.285 12.445 30.2883 12.4561 30.2914 12.4672C29.8411 13.8857 28.8307 15.4041 28.2694 16.1367C28.0173 15.6129 27.7182 15.2974 27.4732 15.1281C26.7874 14.6541 26.0335 14.8749 25.6941 15.3975C25.6809 15.4178 25.6684 15.4384 25.6566 15.4592L22.4963 14.3699Z" fill="url(#paint35_radial_514_1598)"/>
<g filter="url(#filter5_i_514_1598)">
<path d="M31.9228 16.7441C32.1854 18.1372 32.1924 19.7808 31.9039 21.6496C31.7639 22.557 30.9147 23.1791 30.0073 23.039C29.0999 22.899 28.4778 22.0498 28.6178 21.1424C28.6823 20.7249 28.728 20.3339 28.7574 19.9679C30.4758 18.8889 31.6104 17.4534 31.9228 16.7441Z" fill="#44B6FF"/>
</g>
<path d="M31.9228 16.7441C32.1854 18.1372 32.1924 19.7808 31.9039 21.6496C31.7639 22.557 30.9147 23.1791 30.0073 23.039C29.0999 22.899 28.4778 22.0498 28.6178 21.1424C28.6823 20.7249 28.728 20.3339 28.7574 19.9679C30.4758 18.8889 31.6104 17.4534 31.9228 16.7441Z" fill="url(#paint36_radial_514_1598)"/>
<g filter="url(#filter6_f_514_1598)">
<path d="M28.962 14.3012C28.4971 13.6723 27.0069 12.5512 25.1338 13.7133C24.5055 14.1031 24.1358 15.5727 24.4229 16.5707" stroke="url(#paint37_linear_514_1598)" stroke-width="0.3" stroke-linecap="round"/>
</g>
<g filter="url(#filter7_f_514_1598)">
<path d="M34.0752 5.27734C33.9294 7.92057 32.7846 14.1586 29.3721 17.9648" stroke="url(#paint38_linear_514_1598)" stroke-width="0.3" stroke-linecap="round"/>
</g>
<defs>
<filter id="filter0_i_514_1598" x="4.50464" y="20.8076" width="30.033" height="31.6221" filterUnits="userSpaceOnUse" color-interpolation-filters="sRGB">
<feFlood flood-opacity="0" result="BackgroundImageFix"/>
<feBlend mode="normal" in="SourceGraphic" in2="BackgroundImageFix" result="shape"/>
<feColorMatrix in="SourceAlpha" type="matrix" values="0 0 0 0 0 0 0 0 0 0 0 0 0 0 0 0 0 0 127 0" result="hardAlpha"/>
<feOffset dy="-0.5"/>
<feGaussianBlur stdDeviation="0.5"/>
<feComposite in2="hardAlpha" operator="arithmetic" k2="-1" k3="1"/>
<feColorMatrix type="matrix" values="0 0 0 0 0.92549 0 0 0 0 0.34902 0 0 0 0 0.384314 0 0 0 1 0"/>
<feBlend mode="normal" in2="shape" result="effect1_innerShadow_514_1598"/>
</filter>
<filter id="filter1_f_514_1598" x="8.59448" y="21.2227" width="25.8547" height="22.7373" filterUnits="userSpaceOnUse" color-interpolation-filters="sRGB">
<feFlood flood-opacity="0" result="BackgroundImageFix"/>
<feBlend mode="normal" in="SourceGraphic" in2="BackgroundImageFix" result="shape"/>
<feGaussianBlur stdDeviation="0.25" result="effect1_foregroundBlur_514_1598"/>
</filter>
<filter id="filter2_f_514_1598" x="10.352" y="21.718" width="23.2374" height="20.2184" filterUnits="userSpaceOnUse" color-interpolation-filters="sRGB">
<feFlood flood-opacity="0" result="BackgroundImageFix"/>
<feBlend mode="normal" in="SourceGraphic" in2="BackgroundImageFix" result="shape"/>
<feGaussianBlur stdDeviation="0.1" result="effect1_foregroundBlur_514_1598"/>
</filter>
<filter id="filter3_i_514_1598" x="34.439" y="18.7139" width="16.8315" height="7.77344" filterUnits="userSpaceOnUse" color-interpolation-filters="sRGB">
<feFlood flood-opacity="0" result="BackgroundImageFix"/>
<feBlend mode="normal" in="SourceGraphic" in2="BackgroundImageFix" result="shape"/>
<feColorMatrix in="SourceAlpha" type="matrix" values="0 0 0 0 0 0 0 0 0 0 0 0 0 0 0 0 0 0 127 0" result="hardAlpha"/>
<feOffset dx="0.25" dy="-0.25"/>
<feGaussianBlur stdDeviation="0.25"/>
<feComposite in2="hardAlpha" operator="arithmetic" k2="-1" k3="1"/>
<feColorMatrix type="matrix" values="0 0 0 0 0.721569 0 0 0 0 0.270588 0 0 0 0 0.470588 0 0 0 1 0"/>
<feBlend mode="normal" in2="shape" result="effect1_innerShadow_514_1598"/>
</filter>
<filter id="filter4_i_514_1598" x="13.2412" y="10.5195" width="7.43052" height="23.208" filterUnits="userSpaceOnUse" color-interpolation-filters="sRGB">
<feFlood flood-opacity="0" result="BackgroundImageFix"/>
<feBlend mode="normal" in="SourceGraphic" in2="BackgroundImageFix" result="shape"/>
<feColorMatrix in="SourceAlpha" type="matrix" values="0 0 0 0 0 0 0 0 0 0 0 0 0 0 0 0 0 0 127 0" result="hardAlpha"/>
<feOffset dx="0.15" dy="0.25"/>
<feGaussianBlur stdDeviation="0.5"/>
<feComposite in2="hardAlpha" operator="arithmetic" k2="-1" k3="1"/>
<feColorMatrix type="matrix" values="0 0 0 0 0.721569 0 0 0 0 0.184314 0 0 0 0 0.447059 0 0 0 1 0"/>
<feBlend mode="normal" in2="shape" result="effect1_innerShadow_514_1598"/>
</filter>
<filter id="filter5_i_514_1598" x="28.5981" y="16.4941" width="4.02197" height="6.56445" filterUnits="userSpaceOnUse" color-interpolation-filters="sRGB">
<feFlood flood-opacity="0" result="BackgroundImageFix"/>
<feBlend mode="normal" in="SourceGraphic" in2="BackgroundImageFix" result="shape"/>
<feColorMatrix in="SourceAlpha" type="matrix" values="0 0 0 0 0 0 0 0 0 0 0 0 0 0 0 0 0 0 127 0" result="hardAlpha"/>
<feOffset dx="0.5" dy="-0.25"/>
<feGaussianBlur stdDeviation="0.325"/>
<feComposite in2="hardAlpha" operator="arithmetic" k2="-1" k3="1"/>
<feColorMatrix type="matrix" values="0 0 0 0 0.239216 0 0 0 0 0.439216 0 0 0 0 0.768627 0 0 0 1 0"/>
<feBlend mode="normal" in2="shape" result="effect1_innerShadow_514_1598"/>
</filter>
<filter id="filter6_f_514_1598" x="23.8741" y="12.7576" width="5.53799" height="4.26309" filterUnits="userSpaceOnUse" color-interpolation-filters="sRGB">
<feFlood flood-opacity="0" result="BackgroundImageFix"/>
<feBlend mode="normal" in="SourceGraphic" in2="BackgroundImageFix" result="shape"/>
<feGaussianBlur stdDeviation="0.15" result="effect1_foregroundBlur_514_1598"/>
</filter>
<filter id="filter7_f_514_1598" x="28.7722" y="4.67695" width="5.90293" height="13.8883" filterUnits="userSpaceOnUse" color-interpolation-filters="sRGB">
<feFlood flood-opacity="0" result="BackgroundImageFix"/>
<feBlend mode="normal" in="SourceGraphic" in2="BackgroundImageFix" result="shape"/>
<feGaussianBlur stdDeviation="0.225" result="effect1_foregroundBlur_514_1598"/>
</filter>
<linearGradient id="paint0_linear_514_1598" x1="7.38784" y1="34.9731" x2="21.4972" y2="47.2231" gradientUnits="userSpaceOnUse">
<stop stop-color="#B3843C"/>
<stop offset="1" stop-color="#F17A61"/>
</linearGradient>
<linearGradient id="paint1_linear_514_1598" x1="5.82874" y1="36.8689" x2="9.95815" y2="37.7074" gradientUnits="userSpaceOnUse">
<stop stop-color="#B1853B"/>
<stop offset="1" stop-color="#B1853B" stop-opacity="0"/>
</linearGradient>
<linearGradient id="paint2_linear_514_1598" x1="34.5376" y1="41.6996" x2="27.5675" y2="42.8481" gradientUnits="userSpaceOnUse">
<stop stop-color="#F9C26C"/>
<stop offset="1" stop-color="#F9C26C" stop-opacity="0"/>
</linearGradient>
<linearGradient id="paint3_linear_514_1598" x1="19.5211" y1="21.684" x2="15.0441" y2="29.2856" gradientUnits="userSpaceOnUse">
<stop stop-color="#E6BF69"/>
<stop offset="1" stop-color="#E6BF69" stop-opacity="0"/>
</linearGradient>
<linearGradient id="paint4_linear_514_1598" x1="21.5656" y1="38.1561" x2="23.3664" y2="26.1151" gradientUnits="userSpaceOnUse">
<stop stop-color="#FCCB57"/>
<stop offset="1" stop-color="#F5BD55"/>
</linearGradient>
<linearGradient id="paint5_linear_514_1598" x1="9.00819" y1="31.2635" x2="37.848" y2="32.6731" gradientUnits="userSpaceOnUse">
<stop stop-color="#F3AB2C"/>
<stop offset="1" stop-color="#B57F1E"/>
</linearGradient>
<radialGradient id="paint6_radial_514_1598" cx="0" cy="0" r="1" gradientUnits="userSpaceOnUse" gradientTransform="translate(14.794 35.9119) rotate(-109.125) scale(11.3356 3.17498)">
<stop offset="0.423414" stop-color="#CA851E"/>
<stop offset="1" stop-color="#CA851E" stop-opacity="0"/>
</radialGradient>
<radialGradient id="paint7_radial_514_1598" cx="0" cy="0" r="1" gradientUnits="userSpaceOnUse" gradientTransform="translate(26.6623 36.0714) rotate(-73.0972) scale(11.3917 6.67109)">
<stop stop-color="#BC7F28"/>
<stop offset="1" stop-color="#BC7F28" stop-opacity="0"/>
</radialGradient>
<radialGradient id="paint8_radial_514_1598" cx="0" cy="0" r="1" gradientUnits="userSpaceOnUse" gradientTransform="translate(27.1025 27.4258) rotate(138.668) scale(3.02244)">
<stop stop-color="#5AC0FF"/>
<stop offset="1" stop-color="#3279B6"/>
</radialGradient>
<radialGradient id="paint9_radial_514_1598" cx="0" cy="0" r="1" gradientUnits="userSpaceOnUse" gradientTransform="translate(26.5871 27.7099) rotate(160.051) scale(3.03518 3.32694)">
<stop offset="0.534713" stop-color="#3A619E" stop-opacity="0"/>
<stop offset="1" stop-color="#3A619E"/>
</radialGradient>
<radialGradient id="paint10_radial_514_1598" cx="0" cy="0" r="1" gradientUnits="userSpaceOnUse" gradientTransform="translate(44.6741 39.1962) rotate(134.569) scale(3.46067)">
<stop stop-color="#FDD46C"/>
<stop offset="1" stop-color="#F09C53"/>
</radialGradient>
<radialGradient id="paint11_radial_514_1598" cx="0" cy="0" r="1" gradientUnits="userSpaceOnUse" gradientTransform="translate(43.8461 39.0122) rotate(100.827) scale(3.42795)">
<stop offset="0.792052" stop-color="#E76260" stop-opacity="0"/>
<stop offset="0.964251" stop-color="#E76260"/>
</radialGradient>
<radialGradient id="paint12_radial_514_1598" cx="0" cy="0" r="1" gradientUnits="userSpaceOnUse" gradientTransform="translate(44.4586 40.4334) rotate(-147.558) scale(3.4715 4.08816)">
<stop offset="0.482355" stop-color="#AA885A" stop-opacity="0"/>
<stop offset="0.90682" stop-color="#AA885A"/>
</radialGradient>
<radialGradient id="paint13_radial_514_1598" cx="0" cy="0" r="1" gradientUnits="userSpaceOnUse" gradientTransform="translate(43.1982 11.4581) rotate(132.387) scale(3.60521)">
<stop stop-color="#FF46AA"/>
<stop offset="1" stop-color="#E3189D"/>
</radialGradient>
<radialGradient id="paint14_radial_514_1598" cx="0" cy="0" r="1" gradientUnits="userSpaceOnUse" gradientTransform="translate(42.5791 12.6602) rotate(-173.29) scale(3.27635 4.38477)">
<stop offset="0.522105" stop-color="#B63173" stop-opacity="0"/>
<stop offset="1" stop-color="#B63173"/>
</radialGradient>
<radialGradient id="paint15_radial_514_1598" cx="0" cy="0" r="1" gradientUnits="userSpaceOnUse" gradientTransform="translate(18.8635 5.04979) rotate(139.574) scale(3.22207)">
<stop stop-color="#FFF46F"/>
<stop offset="1" stop-color="#EFB93C"/>
</radialGradient>
<radialGradient id="paint16_radial_514_1598" cx="0" cy="0" r="1" gradientUnits="userSpaceOnUse" gradientTransform="translate(18.4026 5.55163) rotate(-178.519) scale(3.35061 3.19021)">
<stop offset="0.558644" stop-color="#AA904B" stop-opacity="0"/>
<stop offset="0.943632" stop-color="#AA904B"/>
</radialGradient>
<radialGradient id="paint17_radial_514_1598" cx="0" cy="0" r="1" gradientUnits="userSpaceOnUse" gradientTransform="translate(18.0244 4.70313) rotate(102.339) scale(3.58276)">
<stop offset="0.771901" stop-color="#C47072" stop-opacity="0"/>
<stop offset="1" stop-color="#C47072"/>
</radialGradient>
<radialGradient id="paint18_radial_514_1598" cx="0" cy="0" r="1" gradientUnits="userSpaceOnUse" gradientTransform="translate(10.1323 13.3721) rotate(132.387) scale(3.60521)">
<stop stop-color="#FF46AA"/>
<stop offset="1" stop-color="#E3189D"/>
</radialGradient>
<radialGradient id="paint19_radial_514_1598" cx="0" cy="0" r="1" gradientUnits="userSpaceOnUse" gradientTransform="translate(9.51318 14.5742) rotate(-173.29) scale(3.27635 4.38477)">
<stop offset="0.522105" stop-color="#B63173" stop-opacity="0"/>
<stop offset="1" stop-color="#B63173"/>
</radialGradient>
<radialGradient id="paint20_radial_514_1598" cx="0" cy="0" r="1" gradientUnits="userSpaceOnUse" gradientTransform="translate(19.6379 43.8862) rotate(133.21) scale(7.42825 16.2636)">
<stop stop-color="#3365FF"/>
<stop offset="1" stop-color="#356DB9"/>
</radialGradient>
<radialGradient id="paint21_radial_514_1598" cx="0" cy="0" r="1" gradientUnits="userSpaceOnUse" gradientTransform="translate(12.966 49.0276) rotate(131.598) scale(4.5853 11.5989)">
<stop stop-color="#3365FF"/>
<stop offset="1" stop-color="#356DB9"/>
</radialGradient>
<radialGradient id="paint22_radial_514_1598" cx="0" cy="0" r="1" gradientUnits="userSpaceOnUse" gradientTransform="translate(48.1847 20.8081) rotate(168.283) scale(7.53994 2.81298)">
<stop stop-color="#FF3BA9"/>
<stop offset="1" stop-color="#F422A7"/>
</radialGradient>
<radialGradient id="paint23_radial_514_1598" cx="0" cy="0" r="1" gradientUnits="userSpaceOnUse" gradientTransform="translate(42.7298 26.8238) rotate(-127.355) scale(7.77421 13.8552)">
<stop offset="0.752144" stop-color="#B8306F" stop-opacity="0"/>
<stop offset="1" stop-color="#B8306F"/>
</radialGradient>
<linearGradient id="paint24_linear_514_1598" x1="33.359" y1="3.64258" x2="25.5157" y2="22.4405" gradientUnits="userSpaceOnUse">
<stop stop-color="#20B2EE"/>
<stop offset="1" stop-color="#2689DA"/>
</linearGradient>
<radialGradient id="paint25_radial_514_1598" cx="0" cy="0" r="1" gradientUnits="userSpaceOnUse" gradientTransform="translate(31.6375 9.74904) rotate(128.217) scale(13.5811 8.30726)">
<stop offset="0.80204" stop-color="#4274D2" stop-opacity="0"/>
<stop offset="0.950917" stop-color="#4274D2"/>
</radialGradient>
<radialGradient id="paint26_radial_514_1598" cx="0" cy="0" r="1" gradientUnits="userSpaceOnUse" gradientTransform="translate(30.9581 8.17619) rotate(12.0948) scale(1.95751 6.57152)">
<stop stop-color="#4D8EC0"/>
<stop offset="1" stop-color="#4D8EC0" stop-opacity="0"/>
</radialGradient>
<radialGradient id="paint27_radial_514_1598" cx="0" cy="0" r="1" gradientUnits="userSpaceOnUse" gradientTransform="translate(34.8409 3.93791) rotate(141.953) scale(2.39582 2.154)">
<stop stop-color="#5ADEFF"/>
<stop offset="1" stop-color="#5ADEFF" stop-opacity="0"/>
</radialGradient>
<linearGradient id="paint28_linear_514_1598" x1="25.2881" y1="37.9663" x2="48.7541" y2="31.8166" gradientUnits="userSpaceOnUse">
<stop stop-color="#3797E2"/>
<stop offset="1" stop-color="#37AEFF"/>
</linearGradient>
<radialGradient id="paint29_radial_514_1598" cx="0" cy="0" r="1" gradientUnits="userSpaceOnUse" gradientTransform="translate(33.9681 41.8033) rotate(-129.838) scale(13.965 35.0063)">
<stop offset="0.622552" stop-color="#526579" stop-opacity="0"/>
<stop offset="0.962126" stop-color="#526579"/>
</radialGradient>
<radialGradient id="paint30_radial_514_1598" cx="0" cy="0" r="1" gradientUnits="userSpaceOnUse" gradientTransform="translate(41.8114 34.2664) rotate(94.3987) scale(4.79361 9.63758)">
<stop offset="0.396078" stop-color="#6972FF"/>
<stop offset="1" stop-color="#6972FF" stop-opacity="0"/>
</radialGradient>
<radialGradient id="paint31_radial_514_1598" cx="0" cy="0" r="1" gradientUnits="userSpaceOnUse" gradientTransform="translate(48.9193 30.2375) rotate(-68.8187) scale(1.3143 1.03648)">
<stop stop-color="#55BFFF"/>
<stop offset="1" stop-color="#55BFFF" stop-opacity="0"/>
</radialGradient>
<radialGradient id="paint32_radial_514_1598" cx="0" cy="0" r="1" gradientUnits="userSpaceOnUse" gradientTransform="translate(18.9764 11.2639) rotate(99.4229) scale(12.7957 4.79378)">
<stop stop-color="#FF3AAA"/>
<stop offset="1" stop-color="#FD2F89"/>
</radialGradient>
<radialGradient id="paint33_radial_514_1598" cx="0" cy="0" r="1" gradientUnits="userSpaceOnUse" gradientTransform="translate(12.2957 24.4586) rotate(31.1757) scale(8.41479 26.408)">
<stop offset="0.803698" stop-color="#DB2C6E" stop-opacity="0"/>
<stop offset="1" stop-color="#DB2C6E"/>
</radialGradient>
<radialGradient id="paint34_radial_514_1598" cx="0" cy="0" r="1" gradientUnits="userSpaceOnUse" gradientTransform="translate(28.7339 16.6591) rotate(-119.23) scale(4.79209 3.58214)">
<stop stop-color="#336BAF"/>
<stop offset="1" stop-color="#336BAF" stop-opacity="0"/>
</radialGradient>
<radialGradient id="paint35_radial_514_1598" cx="0" cy="0" r="1" gradientUnits="userSpaceOnUse" gradientTransform="translate(30.2914 13.0425) rotate(-127.657) scale(3.24644 1.31531)">
<stop stop-color="#49A4D4"/>
<stop offset="1" stop-color="#49A4D4" stop-opacity="0"/>
</radialGradient>
<radialGradient id="paint36_radial_514_1598" cx="0" cy="0" r="1" gradientUnits="userSpaceOnUse" gradientTransform="translate(31.7511 16.5972) rotate(94.8498) scale(4.52793 2.51999)">
<stop stop-color="#4AB5F8"/>
<stop offset="1" stop-color="#4AB5F8" stop-opacity="0"/>
</radialGradient>
<linearGradient id="paint37_linear_514_1598" x1="23.794" y1="14.3317" x2="28.6612" y2="13.139" gradientUnits="userSpaceOnUse">
<stop stop-color="#4EAFF2"/>
<stop offset="1" stop-color="#4EAFF2" stop-opacity="0"/>
</linearGradient>
<linearGradient id="paint38_linear_514_1598" x1="33.6924" y1="3.41797" x2="26.8564" y2="19.168" gradientUnits="userSpaceOnUse">
<stop stop-color="#5BDDFF"/>
<stop offset="1" stop-color="#5BDDFF" stop-opacity="0"/>
</linearGradient>
</defs>
</svg>
