<svg width="44" height="44" viewBox="0 0 44 44" fill="none" xmlns="http://www.w3.org/2000/svg">
<g clip-path="url(#clip0_514_1599)">
<path d="M21.9985 41.2469C34.8333 41.2469 41.2469 32.6291 41.2469 21.9985C41.2469 11.3678 34.8333 2.75 21.9985 2.75C9.1636 2.75 2.75 11.3678 2.75 21.9985C2.75 32.6291 9.1636 41.2469 21.9985 41.2469Z" fill="url(#paint0_radial_514_1599)"/>
<path d="M21.9985 41.2469C34.8333 41.2469 41.2469 32.6291 41.2469 21.9985C41.2469 11.3678 34.8333 2.75 21.9985 2.75C9.1636 2.75 2.75 11.3678 2.75 21.9985C2.75 32.6291 9.1636 41.2469 21.9985 41.2469Z" fill="url(#paint1_radial_514_1599)"/>
<path d="M21.9985 41.2469C34.8333 41.2469 41.2469 32.6291 41.2469 21.9985C41.2469 11.3678 34.8333 2.75 21.9985 2.75C9.1636 2.75 2.75 11.3678 2.75 21.9985C2.75 32.6291 9.1636 41.2469 21.9985 41.2469Z" fill="url(#paint2_radial_514_1599)"/>
<path d="M21.9985 41.2469C34.8333 41.2469 41.2469 32.6291 41.2469 21.9985C41.2469 11.3678 34.8333 2.75 21.9985 2.75C9.1636 2.75 2.75 11.3678 2.75 21.9985C2.75 32.6291 9.1636 41.2469 21.9985 41.2469Z" fill="url(#paint3_radial_514_1599)" fill-opacity="0.6"/>
<path d="M21.9985 41.2469C34.8333 41.2469 41.2469 32.6291 41.2469 21.9985C41.2469 11.3678 34.8333 2.75 21.9985 2.75C9.1636 2.75 2.75 11.3678 2.75 21.9985C2.75 32.6291 9.1636 41.2469 21.9985 41.2469Z" fill="url(#paint4_radial_514_1599)"/>
<path d="M21.9985 41.2469C34.8333 41.2469 41.2469 32.6291 41.2469 21.9985C41.2469 11.3678 34.8333 2.75 21.9985 2.75C9.1636 2.75 2.75 11.3678 2.75 21.9985C2.75 32.6291 9.1636 41.2469 21.9985 41.2469Z" fill="url(#paint5_radial_514_1599)"/>
<path d="M21.9985 41.2469C34.8333 41.2469 41.2469 32.6291 41.2469 21.9985C41.2469 11.3678 34.8333 2.75 21.9985 2.75C9.1636 2.75 2.75 11.3678 2.75 21.9985C2.75 32.6291 9.1636 41.2469 21.9985 41.2469Z" fill="url(#paint6_radial_514_1599)"/>
<path d="M21.9985 41.2469C34.8333 41.2469 41.2469 32.6291 41.2469 21.9985C41.2469 11.3678 34.8333 2.75 21.9985 2.75C9.1636 2.75 2.75 11.3678 2.75 21.9985C2.75 32.6291 9.1636 41.2469 21.9985 41.2469Z" fill="url(#paint7_radial_514_1599)"/>
<circle cx="12.3984" cy="22.5781" r="6.42578" fill="url(#paint8_radial_514_1599)"/>
<ellipse cx="26.4609" cy="23.2969" rx="5.83592" ry="5.83592" fill="url(#paint9_radial_514_1599)"/>
<path d="M14.3262 26.4336C17.5201 26.4336 20.1094 23.8444 20.1094 20.6504C20.1094 17.4564 17.5201 14.8672 14.3262 14.8672C11.1322 14.8672 8.54297 17.4564 8.54297 20.6504C8.54297 23.8444 11.1322 26.4336 14.3262 26.4336Z" fill="white"/>
<path d="M29.6563 26.539C32.8794 26.539 35.4922 23.9262 35.4922 20.7031C35.4922 17.48 32.8794 14.8672 29.6563 14.8672C26.4332 14.8672 23.8204 17.48 23.8204 20.7031C23.8204 23.9262 26.4332 26.539 29.6563 26.539Z" fill="white"/>
<path d="M15.125 24.75C17.4032 24.75 19.25 22.9032 19.25 20.625C19.25 18.3468 17.4032 16.5 15.125 16.5C12.8468 16.5 11 18.3468 11 20.625C11 22.9032 12.8468 24.75 15.125 24.75Z" fill="url(#paint10_linear_514_1599)"/>
<path d="M28.875 24.75C31.1532 24.75 33 22.9032 33 20.625C33 18.3468 31.1532 16.5 28.875 16.5C26.5968 16.5 24.75 18.3468 24.75 20.625C24.75 22.9032 26.5968 24.75 28.875 24.75Z" fill="url(#paint11_linear_514_1599)"/>
<path d="M26.125 31.625C24.0625 33.4813 19.9375 33.4813 17.875 31.625" stroke="#533468" stroke-width="2" stroke-miterlimit="10" stroke-linecap="round"/>
<path fill-rule="evenodd" clip-rule="evenodd" d="M38.5 32.8295V31.5C38.5 29.2909 36.7091 27.5 34.5 27.5H32.875C30.6659 27.5 28.875 29.2909 28.875 31.5L28.875 40.2823C33.2369 38.9437 36.445 36.2917 38.5 32.8295Z" fill="url(#paint12_radial_514_1599)"/>
<rect x="33" y="27.5" width="6.875" height="13.75" rx="3.4375" fill="url(#paint13_radial_514_1599)"/>
</g>
<defs>
<radialGradient id="paint0_radial_514_1599" cx="0" cy="0" r="1" gradientUnits="userSpaceOnUse" gradientTransform="translate(35.0625 12.375) rotate(132.839) scale(51.5671)">
<stop stop-color="#FFF478"/>
<stop offset="0.474827" stop-color="#FFB02E"/>
<stop offset="1" stop-color="#F70A8D"/>
</radialGradient>
<radialGradient id="paint1_radial_514_1599" cx="0" cy="0" r="1" gradientUnits="userSpaceOnUse" gradientTransform="translate(35.0625 12.375) rotate(131.878) scale(53.5544)">
<stop stop-color="#FFF478"/>
<stop offset="0.474827" stop-color="#FFB02E"/>
<stop offset="1" stop-color="#F70A8D"/>
</radialGradient>
<radialGradient id="paint2_radial_514_1599" cx="0" cy="0" r="1" gradientUnits="userSpaceOnUse" gradientTransform="translate(22 17.1875) rotate(101.31) scale(24.539 31.4298)">
<stop offset="0.787821" stop-color="#F59639" stop-opacity="0"/>
<stop offset="0.972509" stop-color="#FF7DCE"/>
</radialGradient>
<radialGradient id="paint3_radial_514_1599" cx="0" cy="0" r="1" gradientUnits="userSpaceOnUse" gradientTransform="translate(24.75 19.25) rotate(135) scale(56.3918)">
<stop offset="0.314853" stop-opacity="0"/>
<stop offset="1"/>
</radialGradient>
<radialGradient id="paint4_radial_514_1599" cx="0" cy="0" r="1" gradientUnits="userSpaceOnUse" gradientTransform="translate(22 23.375) rotate(77.692) scale(38.702)">
<stop offset="0.507903" stop-color="#7D6133" stop-opacity="0"/>
<stop offset="1" stop-color="#715B32"/>
</radialGradient>
<radialGradient id="paint5_radial_514_1599" cx="0" cy="0" r="1" gradientUnits="userSpaceOnUse" gradientTransform="translate(22.6875 22.6875) rotate(55.7131) scale(18.3061 13.2692)">
<stop stop-color="#FFB849"/>
<stop offset="1" stop-color="#FFB847" stop-opacity="0"/>
</radialGradient>
<radialGradient id="paint6_radial_514_1599" cx="0" cy="0" r="1" gradientUnits="userSpaceOnUse" gradientTransform="translate(28.1875 24.75) rotate(9.86581) scale(16.0498)">
<stop stop-color="#FFA64B"/>
<stop offset="0.900412" stop-color="#FFAE46" stop-opacity="0"/>
</radialGradient>
<radialGradient id="paint7_radial_514_1599" cx="0" cy="0" r="1" gradientUnits="userSpaceOnUse" gradientTransform="translate(24.0625 20.625) rotate(43.9708) scale(81.1978)">
<stop offset="0.185425" stop-opacity="0"/>
<stop offset="1" stop-opacity="0.4"/>
</radialGradient>
<radialGradient id="paint8_radial_514_1599" cx="0" cy="0" r="1" gradientUnits="userSpaceOnUse" gradientTransform="translate(17.3963 17.5803) rotate(135) scale(12.5205 6.48017)">
<stop stop-color="#392108"/>
<stop offset="1" stop-color="#C87928" stop-opacity="0"/>
</radialGradient>
<radialGradient id="paint9_radial_514_1599" cx="0" cy="0" r="1" gradientUnits="userSpaceOnUse" gradientTransform="translate(31 18.7578) rotate(135) scale(10.5458 5.95328)">
<stop stop-color="#392108"/>
<stop offset="1" stop-color="#C87928" stop-opacity="0"/>
</radialGradient>
<linearGradient id="paint10_linear_514_1599" x1="22.6875" y1="15.125" x2="21.3125" y2="24.75" gradientUnits="userSpaceOnUse">
<stop stop-color="#553B3E"/>
<stop offset="1" stop-color="#3D2432"/>
</linearGradient>
<linearGradient id="paint11_linear_514_1599" x1="22.6875" y1="15.125" x2="21.3125" y2="24.75" gradientUnits="userSpaceOnUse">
<stop stop-color="#553B3E"/>
<stop offset="1" stop-color="#3D2432"/>
</linearGradient>
<radialGradient id="paint12_radial_514_1599" cx="0" cy="0" r="1" gradientUnits="userSpaceOnUse" gradientTransform="translate(35.0625 33.6875) rotate(107.354) scale(11.5246 5.28386)">
<stop stop-color="#392108"/>
<stop offset="1" stop-color="#C87928" stop-opacity="0"/>
</radialGradient>
<radialGradient id="paint13_radial_514_1599" cx="0" cy="0" r="1" gradientUnits="userSpaceOnUse" gradientTransform="translate(38.7292 28.125) rotate(103.449) scale(14.7803 5.11538)">
<stop stop-color="#5C98FF"/>
<stop offset="0.805982" stop-color="#3D5BF1"/>
<stop offset="0.962238" stop-color="#6065CA"/>
</radialGradient>
<clipPath id="clip0_514_1599">
<rect width="44" height="44" fill="white"/>
</clipPath>
</defs>
</svg>
