<svg width="56" height="56" viewBox="0 0 56 56" fill="none" xmlns="http://www.w3.org/2000/svg">
<path d="M35.6132 12.3853C37.7423 17.0799 40.355 22.8411 42.3164 25.1295C42.6994 24.2404 42.6583 22.7496 43.096 19.1113C43.4912 15.8259 46.2008 15.5141 47.3634 15.7466C49.9348 16.2828 50.7182 18.8892 50.6324 19.8499C50.4956 21.3818 50.489 21.3297 50.2084 25.0338C49.798 30.4501 51.8907 34.5397 52.0822 39.1764C52.0822 47.9164 44.4227 52.2112 39.0611 52.2112C34.7718 52.2112 30.4807 49.4666 28.8713 48.0942L20.8288 40.7494C19.844 39.9834 17.41 37.4562 16.3424 36.0032C13.4318 32.0422 17.6419 29.3149 20.008 29.9987C19.822 29.8565 18.6996 28.0337 18.1617 27.1401C16.7173 24.2404 18.1617 22.3089 19.2285 21.7785C21.6495 20.5748 23.4276 21.9289 23.9883 22.6675C23.7741 22.3028 23.102 20.8292 22.0188 18.1265C20.9355 15.4238 22.6799 13.7543 23.6875 13.2573C25.8759 12.2452 27.9549 13.5309 28.4746 14.6798C28.7291 15.2424 30.102 18.2493 30.6998 19.5754C30.2493 18.4758 29.4333 16.2912 29.1448 15.2816C28.5704 12.9017 29.9517 11.2695 30.8271 10.8501C32.0443 10.2669 34.5832 10.1141 35.5869 12.3273L35.6132 12.3853Z" fill="url(#paint0_radial_514_1596)"/>
<path d="M35.6132 12.3853C37.7423 17.0799 40.355 22.8411 42.3164 25.1295C42.6994 24.2404 42.6583 22.7496 43.096 19.1113C43.4912 15.8259 46.2008 15.5141 47.3634 15.7466C49.9348 16.2828 50.7182 18.8892 50.6324 19.8499C50.4956 21.3818 50.489 21.3297 50.2084 25.0338C49.798 30.4501 51.8907 34.5397 52.0822 39.1764C52.0822 47.9164 44.4227 52.2112 39.0611 52.2112C34.7718 52.2112 30.4807 49.4666 28.8713 48.0942L20.8288 40.7494C19.844 39.9834 17.41 37.4562 16.3424 36.0032C13.4318 32.0422 17.6419 29.3149 20.008 29.9987C19.822 29.8565 18.6996 28.0337 18.1617 27.1401C16.7173 24.2404 18.1617 22.3089 19.2285 21.7785C21.6495 20.5748 23.4276 21.9289 23.9883 22.6675C23.7741 22.3028 23.102 20.8292 22.0188 18.1265C20.9355 15.4238 22.6799 13.7543 23.6875 13.2573C25.8759 12.2452 27.9549 13.5309 28.4746 14.6798C28.7291 15.2424 30.102 18.2493 30.6998 19.5754C30.2493 18.4758 29.4333 16.2912 29.1448 15.2816C28.5704 12.9017 29.9517 11.2695 30.8271 10.8501C32.0443 10.2669 34.5832 10.1141 35.5869 12.3273L35.6132 12.3853Z" fill="url(#paint1_radial_514_1596)"/>
<path d="M50.6324 19.8507C50.4956 21.3826 50.489 21.3305 50.2084 25.0345C50.0634 26.9483 51.104 33.9967 51.104 33.9967C48.5749 34.8226 43.096 33.7276 42.3164 25.1302C42.6994 24.2412 42.6583 22.7503 43.096 19.1121C43.4913 15.8266 46.2008 15.5148 47.3634 15.7474C49.9348 16.2835 50.7182 18.8899 50.6324 19.8507Z" fill="url(#paint2_radial_514_1596)"/>
<path d="M50.6324 19.8507C50.4956 21.3826 50.489 21.3305 50.2084 25.0345C50.0634 26.9483 51.104 33.9967 51.104 33.9967C48.5749 34.8226 43.096 33.7276 42.3164 25.1302C42.6994 24.2412 42.6583 22.7503 43.096 19.1121C43.4913 15.8266 46.2008 15.5148 47.3634 15.7474C49.9348 16.2835 50.7182 18.8899 50.6324 19.8507Z" fill="url(#paint3_radial_514_1596)"/>
<path d="M50.6324 19.8507C50.4956 21.3826 50.489 21.3305 50.2084 25.0345C50.0634 26.9483 51.104 33.9967 51.104 33.9967C48.5749 34.8226 43.096 33.7276 42.3164 25.1302C42.6994 24.2412 42.6583 22.7503 43.096 19.1121C43.4913 15.8266 46.2008 15.5148 47.3634 15.7474C49.9348 16.2835 50.7182 18.8899 50.6324 19.8507Z" fill="url(#paint4_radial_514_1596)"/>
<path d="M35.6133 12.3853C37.7424 17.0799 40.3551 22.8411 42.3165 25.1295C42.0096 27.7482 39.6691 29.0002 37.6524 28.5315C35.1094 27.7933 34.1449 25.9886 34.1449 25.9886C34.1449 25.9886 33.4807 24.9606 32.8324 23.8284C32.0824 22.5188 32.2193 22.5482 30.9641 20.1782C30.7178 19.7132 29.5098 16.5582 29.145 15.2816C28.5705 12.9017 29.9519 11.2695 30.8272 10.8501C32.0444 10.2669 34.5834 10.1141 35.587 12.3273L35.6133 12.3853Z" fill="url(#paint5_radial_514_1596)"/>
<path d="M35.6133 12.3853C37.7424 17.0799 40.3551 22.8411 42.3165 25.1295C42.0096 27.7482 39.6691 29.0002 37.6524 28.5315C35.1094 27.7933 34.1449 25.9886 34.1449 25.9886C34.1449 25.9886 33.4807 24.9606 32.8324 23.8284C32.0824 22.5188 32.2193 22.5482 30.9641 20.1782C30.7178 19.7132 29.5098 16.5582 29.145 15.2816C28.5705 12.9017 29.9519 11.2695 30.8272 10.8501C32.0444 10.2669 34.5834 10.1141 35.587 12.3273L35.6133 12.3853Z" fill="url(#paint6_linear_514_1596)"/>
<path d="M35.6133 12.3853C37.7424 17.0799 40.3551 22.8411 42.3165 25.1295C42.0096 27.7482 39.6691 29.0002 37.6524 28.5315C35.1094 27.7933 34.1449 25.9886 34.1449 25.9886C34.1449 25.9886 33.4807 24.9606 32.8324 23.8284C32.0824 22.5188 32.2193 22.5482 30.9641 20.1782C30.7178 19.7132 29.5098 16.5582 29.145 15.2816C28.5705 12.9017 29.9519 11.2695 30.8272 10.8501C32.0444 10.2669 34.5834 10.1141 35.587 12.3273L35.6133 12.3853Z" fill="url(#paint7_radial_514_1596)"/>
<path d="M35.6133 12.3853C37.7424 17.0799 40.3551 22.8411 42.3165 25.1295C42.0096 27.7482 39.6691 29.0002 37.6524 28.5315C35.1094 27.7933 34.1449 25.9886 34.1449 25.9886C34.1449 25.9886 33.4807 24.9606 32.8324 23.8284C32.0824 22.5188 32.2193 22.5482 30.9641 20.1782C30.7178 19.7132 29.5098 16.5582 29.145 15.2816C28.5705 12.9017 29.9519 11.2695 30.8272 10.8501C32.0444 10.2669 34.5834 10.1141 35.587 12.3273L35.6133 12.3853Z" fill="url(#paint8_radial_514_1596)"/>
<path d="M35.6133 12.3853C37.7424 17.0799 40.3551 22.8411 42.3165 25.1295C42.0096 27.7482 39.6691 29.0002 37.6524 28.5315C35.1094 27.7933 34.1449 25.9886 34.1449 25.9886C34.1449 25.9886 33.4807 24.9606 32.8324 23.8284C32.0824 22.5188 32.2193 22.5482 30.9641 20.1782C30.7178 19.7132 29.5098 16.5582 29.145 15.2816C28.5705 12.9017 29.9519 11.2695 30.8272 10.8501C32.0444 10.2669 34.5834 10.1141 35.587 12.3273L35.6133 12.3853Z" fill="url(#paint9_linear_514_1596)"/>
<path d="M28.4746 14.6805C28.817 15.4373 31.1828 20.6166 30.9639 20.1789C31.6003 21.6133 33.5705 25.1143 34.1447 26.0713C35.411 28.1817 33.9819 29.9374 33.0585 30.4737C30.4049 32.0148 28.881 30.0498 28.881 30.0498C27.4815 27.9979 26.3107 26.2901 24.0002 22.6533C23.4433 21.6053 22.4279 19.2627 22.0188 18.1273C21.0087 15.3243 22.6799 13.755 23.6874 13.258C25.8759 12.2459 27.9549 13.5316 28.4746 14.6805Z" fill="url(#paint10_radial_514_1596)"/>
<path d="M28.4746 14.6805C28.817 15.4373 31.1828 20.6166 30.9639 20.1789C31.6003 21.6133 33.5705 25.1143 34.1447 26.0713C35.411 28.1817 33.9819 29.9374 33.0585 30.4737C30.4049 32.0148 28.881 30.0498 28.881 30.0498C27.4815 27.9979 26.3107 26.2901 24.0002 22.6533C23.4433 21.6053 22.4279 19.2627 22.0188 18.1273C21.0087 15.3243 22.6799 13.755 23.6874 13.258C25.8759 12.2459 27.9549 13.5316 28.4746 14.6805Z" fill="url(#paint11_linear_514_1596)"/>
<path d="M28.4746 14.6805C28.817 15.4373 31.1828 20.6166 30.9639 20.1789C31.6003 21.6133 33.5705 25.1143 34.1447 26.0713C35.411 28.1817 33.9819 29.9374 33.0585 30.4737C30.4049 32.0148 28.881 30.0498 28.881 30.0498C27.4815 27.9979 26.3107 26.2901 24.0002 22.6533C23.4433 21.6053 22.4279 19.2627 22.0188 18.1273C21.0087 15.3243 22.6799 13.755 23.6874 13.258C25.8759 12.2459 27.9549 13.5316 28.4746 14.6805Z" fill="url(#paint12_radial_514_1596)"/>
<path d="M28.4746 14.6805C28.817 15.4373 31.1828 20.6166 30.9639 20.1789C31.6003 21.6133 33.5705 25.1143 34.1447 26.0713C35.411 28.1817 33.9819 29.9374 33.0585 30.4737C30.4049 32.0148 28.881 30.0498 28.881 30.0498C27.4815 27.9979 26.3107 26.2901 24.0002 22.6533C23.4433 21.6053 22.4279 19.2627 22.0188 18.1273C21.0087 15.3243 22.6799 13.755 23.6874 13.258C25.8759 12.2459 27.9549 13.5316 28.4746 14.6805Z" fill="url(#paint13_radial_514_1596)"/>
<path d="M28.4746 14.6805C28.817 15.4373 31.1828 20.6166 30.9639 20.1789C31.6003 21.6133 33.5705 25.1143 34.1447 26.0713C35.411 28.1817 33.9819 29.9374 33.0585 30.4737C30.4049 32.0148 28.881 30.0498 28.881 30.0498C27.4815 27.9979 26.3107 26.2901 24.0002 22.6533C23.4433 21.6053 22.4279 19.2627 22.0188 18.1273C21.0087 15.3243 22.6799 13.755 23.6874 13.258C25.8759 12.2459 27.9549 13.5316 28.4746 14.6805Z" fill="url(#paint14_radial_514_1596)"/>
<path d="M28.4746 14.6805C28.817 15.4373 31.1828 20.6166 30.9639 20.1789C31.6003 21.6133 33.5705 25.1143 34.1447 26.0713C35.411 28.1817 33.9819 29.9374 33.0585 30.4737C30.4049 32.0148 28.881 30.0498 28.881 30.0498C27.4815 27.9979 26.3107 26.2901 24.0002 22.6533C23.4433 21.6053 22.4279 19.2627 22.0188 18.1273C21.0087 15.3243 22.6799 13.755 23.6874 13.258C25.8759 12.2459 27.9549 13.5316 28.4746 14.6805Z" fill="url(#paint15_linear_514_1596)"/>
<path d="M19.2286 21.7791C21.6495 20.5755 23.4276 21.9296 23.9883 22.6682C25.7364 25.3056 27.8214 28.3049 28.7852 29.8993C31.3555 34.1513 26.0919 35.997 26.0919 35.997C21.252 30.5419 20.3566 30.2659 20.008 29.9994C19.822 29.8571 18.6996 28.0344 18.1616 27.1408C16.7173 24.2411 18.1617 22.3095 19.2286 21.7791Z" fill="url(#paint16_radial_514_1596)"/>
<path d="M19.2286 21.7791C21.6495 20.5755 23.4276 21.9296 23.9883 22.6682C25.7364 25.3056 27.8214 28.3049 28.7852 29.8993C31.3555 34.1513 26.0919 35.997 26.0919 35.997C21.252 30.5419 20.3566 30.2659 20.008 29.9994C19.822 29.8571 18.6996 28.0344 18.1616 27.1408C16.7173 24.2411 18.1617 22.3095 19.2286 21.7791Z" fill="url(#paint17_linear_514_1596)"/>
<path d="M19.2286 21.7791C21.6495 20.5755 23.4276 21.9296 23.9883 22.6682C25.7364 25.3056 27.8214 28.3049 28.7852 29.8993C31.3555 34.1513 26.0919 35.997 26.0919 35.997C21.252 30.5419 20.3566 30.2659 20.008 29.9994C19.822 29.8571 18.6996 28.0344 18.1616 27.1408C16.7173 24.2411 18.1617 22.3095 19.2286 21.7791Z" fill="url(#paint18_radial_514_1596)"/>
<path d="M19.2286 21.7791C21.6495 20.5755 23.4276 21.9296 23.9883 22.6682C25.7364 25.3056 27.8214 28.3049 28.7852 29.8993C31.3555 34.1513 26.0919 35.997 26.0919 35.997C21.252 30.5419 20.3566 30.2659 20.008 29.9994C19.822 29.8571 18.6996 28.0344 18.1616 27.1408C16.7173 24.2411 18.1617 22.3095 19.2286 21.7791Z" fill="url(#paint19_radial_514_1596)"/>
<path d="M19.2286 21.7791C21.6495 20.5755 23.4276 21.9296 23.9883 22.6682C25.7364 25.3056 27.8214 28.3049 28.7852 29.8993C31.3555 34.1513 26.0919 35.997 26.0919 35.997C21.252 30.5419 20.3566 30.2659 20.008 29.9994C19.822 29.8571 18.6996 28.0344 18.1616 27.1408C16.7173 24.2411 18.1617 22.3095 19.2286 21.7791Z" fill="url(#paint20_radial_514_1596)"/>
<path d="M19.2286 21.7791C21.6495 20.5755 23.4276 21.9296 23.9883 22.6682C25.7364 25.3056 27.8214 28.3049 28.7852 29.8993C31.3555 34.1513 26.0919 35.997 26.0919 35.997C21.252 30.5419 20.3566 30.2659 20.008 29.9994C19.822 29.8571 18.6996 28.0344 18.1616 27.1408C16.7173 24.2411 18.1617 22.3095 19.2286 21.7791Z" fill="url(#paint21_radial_514_1596)"/>
<path d="M16.3424 36.0032C13.4318 32.0421 17.6419 29.3148 20.008 29.9987C21.1291 30.6917 22.8588 32.4261 23.5976 33.2073C28.2899 37.7837 27.5077 39.1956 26.1952 40.7493C24.9236 41.8044 23.2703 42.6482 20.8288 40.7493C19.844 39.9834 17.41 37.4562 16.3424 36.0032Z" fill="url(#paint22_radial_514_1596)"/>
<path d="M16.3424 36.0032C13.4318 32.0421 17.6419 29.3148 20.008 29.9987C21.1291 30.6917 22.8588 32.4261 23.5976 33.2073C28.2899 37.7837 27.5077 39.1956 26.1952 40.7493C24.9236 41.8044 23.2703 42.6482 20.8288 40.7493C19.844 39.9834 17.41 37.4562 16.3424 36.0032Z" fill="url(#paint23_radial_514_1596)"/>
<path d="M16.3424 36.0032C13.4318 32.0421 17.6419 29.3148 20.008 29.9987C21.1291 30.6917 22.8588 32.4261 23.5976 33.2073C28.2899 37.7837 27.5077 39.1956 26.1952 40.7493C24.9236 41.8044 23.2703 42.6482 20.8288 40.7493C19.844 39.9834 17.41 37.4562 16.3424 36.0032Z" fill="url(#paint24_radial_514_1596)"/>
<path d="M16.3424 36.0032C13.4318 32.0421 17.6419 29.3148 20.008 29.9987C21.1291 30.6917 22.8588 32.4261 23.5976 33.2073C28.2899 37.7837 27.5077 39.1956 26.1952 40.7493C24.9236 41.8044 23.2703 42.6482 20.8288 40.7493C19.844 39.9834 17.41 37.4562 16.3424 36.0032Z" fill="url(#paint25_radial_514_1596)"/>
<path d="M16.3424 36.0032C13.4318 32.0421 17.6419 29.3148 20.008 29.9987C21.1291 30.6917 22.8588 32.4261 23.5976 33.2073C28.2899 37.7837 27.5077 39.1956 26.1952 40.7493C24.9236 41.8044 23.2703 42.6482 20.8288 40.7493C19.844 39.9834 17.41 37.4562 16.3424 36.0032Z" fill="url(#paint26_linear_514_1596)"/>
<path d="M35.6132 12.3853C37.7423 17.0799 40.355 22.8411 42.3164 25.1295C42.6994 24.2404 42.6583 22.7496 43.096 19.1113C43.4912 15.8259 46.2008 15.5141 47.3634 15.7466C49.9348 16.2828 50.7182 18.8892 50.6324 19.8499C50.4956 21.3818 50.489 21.3297 50.2084 25.0338C49.798 30.4501 51.8907 34.5397 52.0822 39.1764C52.0822 47.9164 44.4227 52.2112 39.0611 52.2112C34.7718 52.2112 30.4807 49.4666 28.8713 48.0942L20.8288 40.7494C19.844 39.9834 17.41 37.4562 16.3424 36.0032C13.4318 32.0422 17.6419 29.3149 20.008 29.9987C19.822 29.8565 18.6996 28.0337 18.1617 27.1401C16.7173 24.2404 18.1617 22.3089 19.2285 21.7785C21.6495 20.5748 23.4276 21.9289 23.9883 22.6675C23.7741 22.3028 23.102 20.8292 22.0188 18.1265C20.9355 15.4238 22.6799 13.7543 23.6875 13.2573C25.8759 12.2452 27.9549 13.5309 28.4746 14.6798C28.7291 15.2424 30.102 18.2493 30.6998 19.5754C30.2493 18.4758 29.4333 16.2912 29.1448 15.2816C28.5704 12.9017 29.9517 11.2695 30.8271 10.8501C32.0443 10.2669 34.5832 10.1141 35.5869 12.3273L35.6132 12.3853Z" fill="url(#paint27_radial_514_1596)"/>
<path d="M35.6132 12.3853C37.7423 17.0799 40.355 22.8411 42.3164 25.1295C42.6994 24.2404 42.6583 22.7496 43.096 19.1113C43.4912 15.8259 46.2008 15.5141 47.3634 15.7466C49.9348 16.2828 50.7182 18.8892 50.6324 19.8499C50.4956 21.3818 50.489 21.3297 50.2084 25.0338C49.798 30.4501 51.8907 34.5397 52.0822 39.1764C52.0822 47.9164 44.4227 52.2112 39.0611 52.2112C34.7718 52.2112 30.4807 49.4666 28.8713 48.0942L20.8288 40.7494C19.844 39.9834 17.41 37.4562 16.3424 36.0032C13.4318 32.0422 17.6419 29.3149 20.008 29.9987C19.822 29.8565 18.6996 28.0337 18.1617 27.1401C16.7173 24.2404 18.1617 22.3089 19.2285 21.7785C21.6495 20.5748 23.4276 21.9289 23.9883 22.6675C23.7741 22.3028 23.102 20.8292 22.0188 18.1265C20.9355 15.4238 22.6799 13.7543 23.6875 13.2573C25.8759 12.2452 27.9549 13.5309 28.4746 14.6798C28.7291 15.2424 30.102 18.2493 30.6998 19.5754C30.2493 18.4758 29.4333 16.2912 29.1448 15.2816C28.5704 12.9017 29.9517 11.2695 30.8271 10.8501C32.0443 10.2669 34.5832 10.1141 35.5869 12.3273L35.6132 12.3853Z" fill="url(#paint28_radial_514_1596)"/>
<path d="M35.6132 12.3853C37.7423 17.0799 40.355 22.8411 42.3164 25.1295C42.6994 24.2404 42.6583 22.7496 43.096 19.1113C43.4912 15.8259 46.2008 15.5141 47.3634 15.7466C49.9348 16.2828 50.7182 18.8892 50.6324 19.8499C50.4956 21.3818 50.489 21.3297 50.2084 25.0338C49.798 30.4501 51.8907 34.5397 52.0822 39.1764C52.0822 47.9164 44.4227 52.2112 39.0611 52.2112C34.7718 52.2112 30.4807 49.4666 28.8713 48.0942L20.8288 40.7494C19.844 39.9834 17.41 37.4562 16.3424 36.0032C13.4318 32.0422 17.6419 29.3149 20.008 29.9987C19.822 29.8565 18.6996 28.0337 18.1617 27.1401C16.7173 24.2404 18.1617 22.3089 19.2285 21.7785C21.6495 20.5748 23.4276 21.9289 23.9883 22.6675C23.7741 22.3028 23.102 20.8292 22.0188 18.1265C20.9355 15.4238 22.6799 13.7543 23.6875 13.2573C25.8759 12.2452 27.9549 13.5309 28.4746 14.6798C28.7291 15.2424 30.102 18.2493 30.6998 19.5754C30.2493 18.4758 29.4333 16.2912 29.1448 15.2816C28.5704 12.9017 29.9517 11.2695 30.8271 10.8501C32.0443 10.2669 34.5832 10.1141 35.5869 12.3273L35.6132 12.3853Z" fill="url(#paint29_radial_514_1596)"/>
<path d="M38.5808 18.668C39.8947 21.3535 41.2073 23.7593 42.3165 25.0766C42.4298 26.2484 42.5324 26.9183 42.8127 27.93C40.5978 25.7152 38.456 20.872 38.5808 18.668Z" fill="url(#paint30_radial_514_1596)"/>
<path fill-rule="evenodd" clip-rule="evenodd" d="M7.22053 29.5762C7.74144 29.5762 8.16372 29.9985 8.16372 30.5194C8.16372 32.0955 8.80108 34.205 10.174 35.9079C11.5235 37.5817 13.5688 38.8496 16.4393 38.8496C16.9602 38.8496 17.3824 39.2719 17.3824 39.7928C17.3824 40.3137 16.9602 40.736 16.4393 40.736C12.9359 40.736 10.3719 39.1589 8.70545 37.0919C7.06246 35.054 6.27734 32.5268 6.27734 30.5194C6.27734 29.9985 6.69962 29.5762 7.22053 29.5762Z" fill="url(#paint31_radial_514_1596)"/>
<path fill-rule="evenodd" clip-rule="evenodd" d="M7.22053 29.5762C7.74144 29.5762 8.16372 29.9985 8.16372 30.5194C8.16372 32.0955 8.80108 34.205 10.174 35.9079C11.5235 37.5817 13.5688 38.8496 16.4393 38.8496C16.9602 38.8496 17.3824 39.2719 17.3824 39.7928C17.3824 40.3137 16.9602 40.736 16.4393 40.736C12.9359 40.736 10.3719 39.1589 8.70545 37.0919C7.06246 35.054 6.27734 32.5268 6.27734 30.5194C6.27734 29.9985 6.69962 29.5762 7.22053 29.5762Z" fill="url(#paint32_radial_514_1596)"/>
<path fill-rule="evenodd" clip-rule="evenodd" d="M7.22053 29.5762C7.74144 29.5762 8.16372 29.9985 8.16372 30.5194C8.16372 32.0955 8.80108 34.205 10.174 35.9079C11.5235 37.5817 13.5688 38.8496 16.4393 38.8496C16.9602 38.8496 17.3824 39.2719 17.3824 39.7928C17.3824 40.3137 16.9602 40.736 16.4393 40.736C12.9359 40.736 10.3719 39.1589 8.70545 37.0919C7.06246 35.054 6.27734 32.5268 6.27734 30.5194C6.27734 29.9985 6.69962 29.5762 7.22053 29.5762Z" fill="url(#paint33_radial_514_1596)"/>
<path fill-rule="evenodd" clip-rule="evenodd" d="M4.28474 32.9404C4.80565 32.9404 5.22793 33.3627 5.22793 33.8836C5.22793 37.2269 7.73233 41.6941 12.9914 41.6941C13.5123 41.6941 13.9346 42.1164 13.9346 42.6373C13.9346 43.1582 13.5123 43.5805 12.9914 43.5805C6.3783 43.5805 3.34155 37.9263 3.34155 33.8836C3.34155 33.3627 3.76383 32.9404 4.28474 32.9404Z" fill="url(#paint34_radial_514_1596)"/>
<path fill-rule="evenodd" clip-rule="evenodd" d="M4.28474 32.9404C4.80565 32.9404 5.22793 33.3627 5.22793 33.8836C5.22793 37.2269 7.73233 41.6941 12.9914 41.6941C13.5123 41.6941 13.9346 42.1164 13.9346 42.6373C13.9346 43.1582 13.5123 43.5805 12.9914 43.5805C6.3783 43.5805 3.34155 37.9263 3.34155 33.8836C3.34155 33.3627 3.76383 32.9404 4.28474 32.9404Z" fill="url(#paint35_radial_514_1596)"/>
<path fill-rule="evenodd" clip-rule="evenodd" d="M39.6135 17.2405C39.0926 17.2439 38.6675 16.8244 38.6641 16.3035C38.6538 14.7274 38.0027 12.6221 36.6187 10.9282C35.2583 9.26327 33.2047 8.00879 30.3343 8.02755C29.8134 8.03096 29.3884 7.61145 29.385 7.09055C29.3816 6.56965 29.8011 6.14462 30.322 6.14122C33.8253 6.11832 36.3995 7.6786 38.0795 9.73469C39.7357 11.7618 40.5374 14.2838 40.5505 16.2912C40.5539 16.8121 40.1344 17.2371 39.6135 17.2405Z" fill="url(#paint36_radial_514_1596)"/>
<path fill-rule="evenodd" clip-rule="evenodd" d="M39.6135 17.2405C39.0926 17.2439 38.6675 16.8244 38.6641 16.3035C38.6538 14.7274 38.0027 12.6221 36.6187 10.9282C35.2583 9.26327 33.2047 8.00879 30.3343 8.02755C29.8134 8.03096 29.3884 7.61145 29.385 7.09055C29.3816 6.56965 29.8011 6.14462 30.322 6.14122C33.8253 6.11832 36.3995 7.6786 38.0795 9.73469C39.7357 11.7618 40.5374 14.2838 40.5505 16.2912C40.5539 16.8121 40.1344 17.2371 39.6135 17.2405Z" fill="url(#paint37_radial_514_1596)"/>
<path fill-rule="evenodd" clip-rule="evenodd" d="M42.5253 13.8577C42.0044 13.8611 41.5794 13.4416 41.576 12.9207C41.5542 9.57755 39.0206 5.12676 33.7616 5.16113C33.2407 5.16454 32.8157 4.74503 32.8123 4.22413C32.8089 3.70323 33.2284 3.2782 33.7493 3.2748C40.3623 3.23157 43.4359 8.86581 43.4623 12.9084C43.4657 13.4293 43.0462 13.8543 42.5253 13.8577Z" fill="url(#paint38_radial_514_1596)"/>
<path fill-rule="evenodd" clip-rule="evenodd" d="M42.5253 13.8577C42.0044 13.8611 41.5794 13.4416 41.576 12.9207C41.5542 9.57755 39.0206 5.12676 33.7616 5.16113C33.2407 5.16454 32.8157 4.74503 32.8123 4.22413C32.8089 3.70323 33.2284 3.2782 33.7493 3.2748C40.3623 3.23157 43.4359 8.86581 43.4623 12.9084C43.4657 13.4293 43.0462 13.8543 42.5253 13.8577Z" fill="url(#paint39_radial_514_1596)"/>
<g filter="url(#filter0_f_514_1596)">
<path d="M39.4296 25.251C36.0389 26.6182 28.3706 31.1087 26.1156 41.1135" stroke="#FFC339" stroke-width="2" stroke-linecap="round"/>
</g>
<defs>
<filter id="filter0_f_514_1596" x="23.1155" y="22.251" width="19.3145" height="21.8623" filterUnits="userSpaceOnUse" color-interpolation-filters="sRGB">
<feFlood flood-opacity="0" result="BackgroundImageFix"/>
<feBlend mode="normal" in="SourceGraphic" in2="BackgroundImageFix" result="shape"/>
<feGaussianBlur stdDeviation="1" result="effect1_foregroundBlur_514_1596"/>
</filter>
<radialGradient id="paint0_radial_514_1596" cx="0" cy="0" r="1" gradientUnits="userSpaceOnUse" gradientTransform="translate(33.7177 24.2112) rotate(60.1006) scale(36.841 24.0677)">
<stop offset="0.00323036" stop-color="#FFC133"/>
<stop offset="0.697824" stop-color="#FFC53F"/>
<stop offset="0.797459" stop-color="#FFAD3E"/>
<stop offset="0.945275" stop-color="#EC7D58"/>
</radialGradient>
<radialGradient id="paint1_radial_514_1596" cx="0" cy="0" r="1" gradientUnits="userSpaceOnUse" gradientTransform="translate(52.0822 32.305) rotate(-93.0118) scale(21.8576 8.37359)">
<stop offset="0.00323036" stop-color="#FFE849"/>
<stop offset="1" stop-color="#FFE647" stop-opacity="0"/>
</radialGradient>
<radialGradient id="paint2_radial_514_1596" cx="0" cy="0" r="1" gradientUnits="userSpaceOnUse" gradientTransform="translate(49.4572 16.6651) rotate(99.6824) scale(11.7058 4.48446)">
<stop offset="0.00323036" stop-color="#FFE849"/>
<stop offset="1" stop-color="#FFE647" stop-opacity="0"/>
</radialGradient>
<radialGradient id="paint3_radial_514_1596" cx="0" cy="0" r="1" gradientUnits="userSpaceOnUse" gradientTransform="translate(42.3164 23.7146) scale(4.73458 19.2005)">
<stop stop-color="#EE9F2C"/>
<stop offset="1" stop-color="#EE9F2C" stop-opacity="0"/>
</radialGradient>
<radialGradient id="paint4_radial_514_1596" cx="0" cy="0" r="1" gradientUnits="userSpaceOnUse" gradientTransform="translate(44.394 31.1579) rotate(-94.0856) scale(7.96899 5.5351)">
<stop stop-color="#FFC93D"/>
<stop offset="1" stop-color="#FFC33A" stop-opacity="0"/>
</radialGradient>
<radialGradient id="paint5_radial_514_1596" cx="0" cy="0" r="1" gradientUnits="userSpaceOnUse" gradientTransform="translate(39.9417 19.0595) rotate(151.024) scale(8.37669 16.8271)">
<stop offset="0.563302" stop-color="#F09D2E" stop-opacity="0"/>
<stop offset="1" stop-color="#F09D2E"/>
</radialGradient>
<linearGradient id="paint6_linear_514_1596" x1="35.6629" y1="27.6414" x2="35.6629" y2="23.1175" gradientUnits="userSpaceOnUse">
<stop stop-color="#FFC337"/>
<stop offset="1" stop-color="#FFC337" stop-opacity="0"/>
</linearGradient>
<radialGradient id="paint7_radial_514_1596" cx="0" cy="0" r="1" gradientUnits="userSpaceOnUse" gradientTransform="translate(38.1917 12.3987) rotate(-13.4957) scale(5.62405 12.4368)">
<stop stop-color="#FFEC4C"/>
<stop offset="1" stop-color="#FFEC4C" stop-opacity="0"/>
</radialGradient>
<radialGradient id="paint8_radial_514_1596" cx="0" cy="0" r="1" gradientUnits="userSpaceOnUse" gradientTransform="translate(29.0093 10.4775) rotate(33.3064) scale(5.49054 4.25686)">
<stop stop-color="#D99F2B"/>
<stop offset="1" stop-color="#D99F2B" stop-opacity="0"/>
</radialGradient>
<linearGradient id="paint9_linear_514_1596" x1="29.8792" y1="21.5315" x2="32.6136" y2="20.219" gradientUnits="userSpaceOnUse">
<stop stop-color="#A85300"/>
<stop offset="0.824742" stop-color="#A85300" stop-opacity="0"/>
</linearGradient>
<radialGradient id="paint10_radial_514_1596" cx="0" cy="0" r="1" gradientUnits="userSpaceOnUse" gradientTransform="translate(32.0475 21.6489) rotate(149.148) scale(8.07476 16.8504)">
<stop offset="0.563302" stop-color="#F09D2E" stop-opacity="0"/>
<stop offset="1" stop-color="#F09D2E"/>
</radialGradient>
<linearGradient id="paint11_linear_514_1596" x1="27.9999" y1="30.4062" x2="27.9999" y2="25.7898" gradientUnits="userSpaceOnUse">
<stop stop-color="#FFC337"/>
<stop offset="1" stop-color="#FFC337" stop-opacity="0"/>
</linearGradient>
<radialGradient id="paint12_radial_514_1596" cx="0" cy="0" r="1" gradientUnits="userSpaceOnUse" gradientTransform="translate(31.1171 16.501) rotate(-33.8929) scale(5.35876 16.3147)">
<stop stop-color="#FFEC4C"/>
<stop offset="1" stop-color="#FFEC4C" stop-opacity="0"/>
</radialGradient>
<radialGradient id="paint13_radial_514_1596" cx="0" cy="0" r="1" gradientUnits="userSpaceOnUse" gradientTransform="translate(27.0353 23.1182) rotate(-24.9048) scale(6.75297 30.8348)">
<stop offset="0.597587" stop-color="#F09D2E" stop-opacity="0"/>
<stop offset="1" stop-color="#F09D2E"/>
</radialGradient>
<radialGradient id="paint14_radial_514_1596" cx="0" cy="0" r="1" gradientUnits="userSpaceOnUse" gradientTransform="translate(20.9103 12.8916) rotate(32.6006) scale(5.5827 4.4495)">
<stop stop-color="#D99F2B"/>
<stop offset="1" stop-color="#D99F2B" stop-opacity="0"/>
</radialGradient>
<linearGradient id="paint15_linear_514_1596" x1="23.3713" y1="24.2119" x2="25.1907" y2="22.9398" gradientUnits="userSpaceOnUse">
<stop stop-color="#A85300"/>
<stop offset="0.824742" stop-color="#A85300" stop-opacity="0"/>
</linearGradient>
<radialGradient id="paint16_radial_514_1596" cx="0" cy="0" r="1" gradientUnits="userSpaceOnUse" gradientTransform="translate(27.3617 28.6484) rotate(137.351) scale(6.6895 13.0993)">
<stop offset="0.563302" stop-color="#F09D2E" stop-opacity="0"/>
<stop offset="1" stop-color="#F09D2E"/>
</radialGradient>
<linearGradient id="paint17_linear_514_1596" x1="23.5229" y1="35.997" x2="23.5229" y2="32.1232" gradientUnits="userSpaceOnUse">
<stop stop-color="#FFC337"/>
<stop offset="1" stop-color="#FFC337" stop-opacity="0"/>
</linearGradient>
<radialGradient id="paint18_radial_514_1596" cx="0" cy="0" r="1" gradientUnits="userSpaceOnUse" gradientTransform="translate(25.7201 22.906) rotate(-12.2956) scale(5.09486 10.7923)">
<stop stop-color="#FFEC4C"/>
<stop offset="1" stop-color="#FFEC4C" stop-opacity="0"/>
</radialGradient>
<radialGradient id="paint19_radial_514_1596" cx="0" cy="0" r="1" gradientUnits="userSpaceOnUse" gradientTransform="translate(22.6081 29.8814) rotate(-40.2165) scale(7.08678 36.2301)">
<stop offset="0.597587" stop-color="#F09D2E" stop-opacity="0"/>
<stop offset="1" stop-color="#F09D2E"/>
</radialGradient>
<radialGradient id="paint20_radial_514_1596" cx="0" cy="0" r="1" gradientUnits="userSpaceOnUse" gradientTransform="translate(16.799 21.2998) rotate(29.5034) scale(5.12514 3.85732)">
<stop stop-color="#D99F2B"/>
<stop offset="1" stop-color="#D99F2B" stop-opacity="0"/>
</radialGradient>
<radialGradient id="paint21_radial_514_1596" cx="0" cy="0" r="1" gradientUnits="userSpaceOnUse" gradientTransform="translate(19.4884 31.3759) rotate(-45.7639) scale(2.9005 13.0961)">
<stop stop-color="#A85300"/>
<stop offset="0.824742" stop-color="#A85300" stop-opacity="0"/>
</radialGradient>
<radialGradient id="paint22_radial_514_1596" cx="0" cy="0" r="1" gradientUnits="userSpaceOnUse" gradientTransform="translate(25.874 36.2559) rotate(143.369) scale(6.57653 12.3741)">
<stop offset="0.563302" stop-color="#F09D2E" stop-opacity="0"/>
<stop offset="1" stop-color="#F09D2E"/>
</radialGradient>
<radialGradient id="paint23_radial_514_1596" cx="0" cy="0" r="1" gradientUnits="userSpaceOnUse" gradientTransform="translate(24.1131 31.2842) rotate(-9.97765) scale(5.42159 9.41863)">
<stop stop-color="#FFEC4C"/>
<stop offset="1" stop-color="#FFEC4C" stop-opacity="0"/>
</radialGradient>
<radialGradient id="paint24_radial_514_1596" cx="0" cy="0" r="1" gradientUnits="userSpaceOnUse" gradientTransform="translate(20.7751 37.3234) rotate(-34.3137) scale(7.0277 33.9292)">
<stop offset="0.597587" stop-color="#F09D2E" stop-opacity="0"/>
<stop offset="1" stop-color="#F09D2E"/>
</radialGradient>
<radialGradient id="paint25_radial_514_1596" cx="0" cy="0" r="1" gradientUnits="userSpaceOnUse" gradientTransform="translate(14.544 29.8936) rotate(24.5478) scale(5.25998 3.49041)">
<stop stop-color="#D99F2B"/>
<stop offset="1" stop-color="#D99F2B" stop-opacity="0"/>
</radialGradient>
<linearGradient id="paint26_linear_514_1596" x1="26.1604" y1="48.2737" x2="21.7563" y2="39.2644" gradientUnits="userSpaceOnUse">
<stop stop-color="#FFC337"/>
<stop offset="1" stop-color="#FFC337" stop-opacity="0"/>
</linearGradient>
<radialGradient id="paint27_radial_514_1596" cx="0" cy="0" r="1" gradientUnits="userSpaceOnUse" gradientTransform="translate(41.9104 21.9144) rotate(129.014) scale(30.4057 49.1725)">
<stop offset="0.872168" stop-color="#F6814F" stop-opacity="0"/>
<stop offset="1" stop-color="#F7814F"/>
</radialGradient>
<radialGradient id="paint28_radial_514_1596" cx="0" cy="0" r="1" gradientUnits="userSpaceOnUse" gradientTransform="translate(35.5666 22.2425) rotate(76.293) scale(32.3108 35.452)">
<stop offset="0.853453" stop-color="#F6814F" stop-opacity="0"/>
<stop offset="1" stop-color="#F7814F"/>
</radialGradient>
<radialGradient id="paint29_radial_514_1596" cx="0" cy="0" r="1" gradientUnits="userSpaceOnUse" gradientTransform="translate(42.8947 14.0394) rotate(64.44) scale(5.57705 4.97185)">
<stop stop-color="#D99F2B"/>
<stop offset="1" stop-color="#D99F2B" stop-opacity="0"/>
</radialGradient>
<radialGradient id="paint30_radial_514_1596" cx="0" cy="0" r="1" gradientUnits="userSpaceOnUse" gradientTransform="translate(42.8127 24.7035) rotate(149.254) scale(2.1238 6.57184)">
<stop offset="0.200941" stop-color="#B4813D"/>
<stop offset="1" stop-color="#B4813D" stop-opacity="0"/>
</radialGradient>
<radialGradient id="paint31_radial_514_1596" cx="0" cy="0" r="1" gradientUnits="userSpaceOnUse" gradientTransform="translate(8.56244 30.0817) rotate(62.071) scale(9.29629 13.7868)">
<stop stop-color="#419FFD"/>
<stop offset="1" stop-color="#4B6DCB"/>
</radialGradient>
<radialGradient id="paint32_radial_514_1596" cx="0" cy="0" r="1" gradientUnits="userSpaceOnUse" gradientTransform="translate(5.93354 30.7744) rotate(2.38594) scale(1.31364 2.76456)">
<stop stop-color="#5486C7"/>
<stop offset="1" stop-color="#5486C7" stop-opacity="0"/>
</radialGradient>
<radialGradient id="paint33_radial_514_1596" cx="0" cy="0" r="1" gradientUnits="userSpaceOnUse" gradientTransform="translate(15.7773 38.2666) rotate(111.801) scale(1.32526 3.89808)">
<stop stop-color="#5486C7"/>
<stop offset="1" stop-color="#5486C7" stop-opacity="0"/>
</radialGradient>
<radialGradient id="paint34_radial_514_1596" cx="0" cy="0" r="1" gradientUnits="userSpaceOnUse" gradientTransform="translate(9.24214 34.9302) rotate(94.7123) scale(7.35298 12.3633)">
<stop stop-color="#419FFD"/>
<stop offset="1" stop-color="#4B6DCB"/>
</radialGradient>
<radialGradient id="paint35_radial_514_1596" cx="0" cy="0" r="1" gradientUnits="userSpaceOnUse" gradientTransform="translate(3.01361 34.0829) rotate(2.38479) scale(1.25307 2.63581)">
<stop stop-color="#5486C7"/>
<stop offset="1" stop-color="#5486C7" stop-opacity="0"/>
</radialGradient>
<radialGradient id="paint36_radial_514_1596" cx="0" cy="0" r="1" gradientUnits="userSpaceOnUse" gradientTransform="translate(32.3885 4.10543) rotate(60.1958) scale(7.81058 11.5834)">
<stop stop-color="#419FFD"/>
<stop offset="1" stop-color="#4B6DCB"/>
</radialGradient>
<radialGradient id="paint37_radial_514_1596" cx="0" cy="0" r="1" gradientUnits="userSpaceOnUse" gradientTransform="translate(29.1725 6.93376) rotate(18.8618) scale(1.1237 1.80865)">
<stop stop-color="#4D8AC1"/>
<stop offset="1" stop-color="#4D8AC1" stop-opacity="0"/>
</radialGradient>
<radialGradient id="paint38_radial_514_1596" cx="0" cy="0" r="1" gradientUnits="userSpaceOnUse" gradientTransform="translate(35.677 1.3341) rotate(60.69) scale(9.70309 14.3938)">
<stop stop-color="#419FFD"/>
<stop offset="1" stop-color="#4B6DCB"/>
</radialGradient>
<radialGradient id="paint39_radial_514_1596" cx="0" cy="0" r="1" gradientUnits="userSpaceOnUse" gradientTransform="translate(32.6093 4.03072) rotate(18.8531) scale(1.07183 1.7245)">
<stop stop-color="#4D8AC1"/>
<stop offset="1" stop-color="#4D8AC1" stop-opacity="0"/>
</radialGradient>
</defs>
</svg>
