<?xml version="1.0" encoding="utf-8"?>
<!-- Generator: Adobe Illustrator 27.0.1, SVG Export Plug-In . SVG Version: 6.00 Build 0)  -->
<svg version="1.1" id="Layer_1" xmlns="http://www.w3.org/2000/svg" xmlns:xlink="http://www.w3.org/1999/xlink" x="0px" y="0px"
	 viewBox="0 0 175 48" style="enable-background:new 0 0 175 48;" xml:space="preserve">
<style type="text/css">
	.st0{display:none;}
	.st1{display:inline;}
	.st2{fill:#293845;}
	.st3{font-family:'DINNextW1G-Bold';}
	.st4{font-size:120.3786px;}
	.st5{display:inline;fill:#753EC2;}
	.st6{fill:#753EC2;}
	.st7{fill:#F1F4F7;}
	.st8{fill:#FFFFFF;}
</style>
<g class="st0">
	<g class="st1">
		<text transform="matrix(1 0 0 1 -108.9445 62.7332)" class="st2 st3 st4">WordSack</text>
	</g>
	<path class="st5" d="M-158.32,6.49h-39.92c-4.72,0-8.54,3.82-8.54,8.54v37.42c0,4.72,3.82,8.54,8.54,8.54h24.21l12.69,8.47
		c0.46,0.3,1.07-0.02,1.07-0.57v-7.9h1.96c4.72,0,8.54-3.82,8.54-8.54V15.03C-149.78,10.32-153.61,6.49-158.32,6.49z"/>
	<path class="st5" d="M-209.43,12.61c0-5.21,4.23-9.44,9.44-9.44h2.56v-25.14c0-4.72-3.82-8.54-8.54-8.54h-39.92
		c-4.72,0-8.54,3.82-8.54,8.54v37.42c0,4.72,3.82,8.54,8.54,8.54h2.46v6.9c0,0.55,0.61,0.87,1.07,0.57l11.19-7.47h21.74V12.61z"/>
	
		<text transform="matrix(1 0 0 1 -240.0744 5.5349)" style="display:inline;fill:#F1F4F7; font-family:'DINNextW1G-Regular'; font-size:37.0787px;">w</text>
	
		<text transform="matrix(1 0 0 1 -187.3493 43.405)" style="display:inline;fill:#FFFFFF; font-family:'ArialUnicodeMS'; font-size:31.1981px;">स</text>
</g>
<g>
	<g>
		<path class="st2" d="M56.15,34.53c-0.2,0-0.32-0.12-0.38-0.29L52.3,21.82h-0.06l-3.5,12.42c-0.06,0.18-0.18,0.29-0.38,0.29h-2.94
			c-0.18,0-0.29-0.12-0.35-0.29l-5.17-19.38c-0.03-0.18,0.03-0.29,0.23-0.29h3.79c0.2,0,0.32,0.12,0.35,0.29l2.88,12.54h0.06
			l3.41-12.54c0.06-0.18,0.18-0.29,0.38-0.29h2.55c0.18,0,0.29,0.12,0.35,0.29l3.53,12.54h0.06l2.76-12.54
			c0.03-0.2,0.15-0.29,0.35-0.29h3.76c0.2,0,0.26,0.12,0.23,0.29l-5.14,19.38c-0.03,0.18-0.18,0.29-0.38,0.29H56.15z"/>
		<path class="st2" d="M66.57,30.86c-0.32-1.03-0.47-2.03-0.47-3.43c0-1.41,0.15-2.41,0.47-3.43C67.4,21.41,69.74,20,72.74,20
			c3,0,5.35,1.41,6.17,3.99c0.32,1.03,0.47,2.03,0.47,3.43c0,1.41-0.15,2.41-0.47,3.43c-0.82,2.58-3.17,3.99-6.17,3.99
			C69.74,34.86,67.4,33.45,66.57,30.86z M74.94,29.86c0.2-0.65,0.26-1.23,0.26-2.44c0-1.2-0.06-1.79-0.26-2.44
			c-0.32-1-1.11-1.53-2.2-1.53c-1.09,0-1.88,0.53-2.2,1.53c-0.2,0.65-0.26,1.23-0.26,2.44c0,1.21,0.06,1.79,0.26,2.44
			c0.32,1,1.11,1.53,2.2,1.53C73.83,31.39,74.62,30.86,74.94,29.86z"/>
		<path class="st2" d="M82.67,34.53c-0.18,0-0.29-0.12-0.29-0.29V20.61c0-0.18,0.12-0.29,0.29-0.29h3.53c0.18,0,0.29,0.12,0.29,0.29
			v1.21h0.03c0.68-1.15,1.97-1.82,3.7-1.82c0.94,0,1.88,0.32,2.5,0.85c0.15,0.12,0.18,0.23,0.09,0.41l-1.64,2.99
			c-0.12,0.15-0.23,0.15-0.41,0.06c-0.68-0.44-1.35-0.68-2.06-0.65c-1.53,0.06-2.2,1.18-2.2,3.08v7.49c0,0.18-0.12,0.29-0.29,0.29
			H82.67z"/>
		<path class="st2" d="M103.02,34.53c-0.18,0-0.29-0.12-0.29-0.29v-1.03h-0.03c-0.68,0.97-1.85,1.64-3.73,1.64
			c-2.38,0-4.08-1.18-4.82-3.41c-0.35-1.11-0.5-2.2-0.5-4.02c0-1.85,0.15-2.91,0.5-4.02c0.73-2.26,2.44-3.41,4.82-3.41
			c1.88,0,3.05,0.68,3.73,1.64h0.03v-6.79c0-0.18,0.12-0.29,0.29-0.29h3.53c0.18,0,0.29,0.12,0.29,0.29v19.38
			c0,0.18-0.12,0.29-0.29,0.29C106.54,34.53,103.02,34.53,103.02,34.53z M102.46,29.86c0.18-0.56,0.26-1.18,0.26-2.44
			c0-1.26-0.09-1.88-0.26-2.44c-0.32-1.03-1.09-1.53-2.17-1.53c-1.11,0-1.88,0.5-2.2,1.53c-0.18,0.56-0.26,1.18-0.26,2.44
			c0,1.26,0.09,1.88,0.26,2.44c0.32,1,1.09,1.53,2.2,1.53C101.37,31.39,102.14,30.86,102.46,29.86z"/>
		<path class="st2" d="M109.63,32.12c-0.12-0.12-0.18-0.32-0.03-0.5l2.23-2.55c0.12-0.15,0.29-0.15,0.44-0.03
			c1.32,1.06,3.11,2.06,5.23,2.06c2.09,0,3.26-0.97,3.26-2.38c0-1.17-0.71-1.91-3.08-2.23l-1.06-0.15
			c-4.05-0.56-6.31-2.47-6.31-5.99c0-3.67,2.76-6.11,7.08-6.11c2.64,0,5.11,0.79,6.78,2.09c0.18,0.12,0.2,0.23,0.06,0.44l-1.79,2.67
			c-0.12,0.15-0.26,0.18-0.41,0.09c-1.53-1-3-1.53-4.64-1.53c-1.76,0-2.67,0.91-2.67,2.17c0,1.14,0.82,1.88,3.11,2.2l1.06,0.15
			c4.11,0.56,6.28,2.44,6.28,6.05s-2.67,6.28-7.84,6.28C114.21,34.86,111.18,33.62,109.63,32.12z"/>
		<path class="st2" d="M136.35,34.53c-0.18,0-0.29-0.12-0.29-0.29V33.3h-0.03c-0.73,0.94-1.97,1.56-3.91,1.56
			c-2.52,0-4.73-1.32-4.73-4.35c0-3.14,2.38-4.58,5.9-4.58h2.52c0.12,0,0.18-0.06,0.18-0.18v-0.53c0-1.32-0.65-1.94-2.91-1.94
			c-1.44,0-2.5,0.41-3.17,0.91c-0.15,0.12-0.29,0.09-0.38-0.06l-1.32-2.32c-0.09-0.18-0.06-0.32,0.09-0.41
			c1.21-0.85,2.94-1.41,5.29-1.41c4.64,0,6.31,1.59,6.31,5.14v9.1c0,0.18-0.12,0.29-0.29,0.29L136.35,34.53L136.35,34.53z M136,29.8
			v-0.97c0-0.12-0.06-0.18-0.18-0.18h-2c-1.73,0-2.52,0.5-2.52,1.61c0,1,0.71,1.5,2.06,1.5C135.11,31.77,136,31.13,136,29.8z"/>
		<path class="st2" d="M143.25,30.83c-0.29-0.85-0.44-1.91-0.44-3.41c0-1.5,0.15-2.55,0.44-3.41c0.85-2.64,3.14-4.02,6.14-4.02
			c2.44,0,4.35,1.11,5.37,2.67c0.09,0.15,0.09,0.29-0.06,0.41l-2.55,1.67c-0.18,0.12-0.32,0.09-0.44-0.06
			c-0.62-0.85-1.23-1.23-2.26-1.23c-1.09,0-1.88,0.5-2.2,1.53c-0.2,0.59-0.26,1.26-0.26,2.44c0,1.18,0.06,1.85,0.26,2.44
			c0.32,1.03,1.12,1.53,2.2,1.53c1.03,0,1.64-0.38,2.26-1.23c0.12-0.15,0.26-0.18,0.44-0.06l2.55,1.67
			c0.15,0.12,0.15,0.26,0.06,0.41c-1.03,1.56-2.94,2.67-5.37,2.67C146.39,34.86,144.1,33.47,143.25,30.83z"/>
		<path class="st2" d="M166.83,34.53c-0.2,0-0.32-0.09-0.44-0.29l-3.17-5.73l-1.47,1.82v3.91c0,0.18-0.12,0.29-0.29,0.29h-3.53
			c-0.18,0-0.29-0.12-0.29-0.29V14.86c0-0.18,0.12-0.29,0.29-0.29h3.53c0.18,0,0.29,0.12,0.29,0.29v10.78l4.08-5.02
			c0.18-0.2,0.32-0.29,0.56-0.29h3.76c0.18,0,0.23,0.18,0.12,0.29l-4.35,5.02l4.96,8.6c0.09,0.12,0.03,0.29-0.15,0.29H166.83z"/>
	</g>
	<g>
		<path class="st6" d="M27.51,20.81h-9.74c-1.15,0-2.08,0.93-2.08,2.08v9.13c0,1.15,0.93,2.08,2.08,2.08h5.9l3.1,2.07
			c0.11,0.07,0.26,0,0.26-0.14v-1.93h0.48c1.15,0,2.08-0.93,2.08-2.08v-9.13C29.59,21.75,28.66,20.81,27.51,20.81z"/>
	</g>
	<g>
		<path class="st6" d="M15.04,22.3c0-1.27,1.03-2.3,2.3-2.3h0.62v-6.13c0-1.15-0.93-2.08-2.08-2.08H6.15
			c-1.15,0-2.08,0.93-2.08,2.08V23c0,1.15,0.93,2.08,2.08,2.08h0.6v1.68c0,0.13,0.15,0.21,0.26,0.14l2.73-1.82h5.3
			C15.04,25.08,15.04,22.3,15.04,22.3z"/>
	</g>
	<g>
		<path class="st7" d="M12.03,20.58c-0.05,0-0.09-0.04-0.11-0.09l-0.98-3.1h-0.02l-0.99,3.1c-0.02,0.05-0.05,0.09-0.11,0.09H9.31
			c-0.05,0-0.09-0.04-0.11-0.09l-1.36-4.15c-0.02-0.05,0.01-0.09,0.06-0.09h0.61c0.06,0,0.09,0.02,0.12,0.09l0.96,3.13h0.02
			l0.98-3.13c0.02-0.06,0.05-0.09,0.11-0.09h0.47c0.05,0,0.1,0.03,0.12,0.09l0.99,3.13h0.02l0.93-3.13
			c0.02-0.07,0.05-0.09,0.12-0.09h0.61c0.05,0,0.08,0.04,0.06,0.09l-1.37,4.15c-0.02,0.05-0.05,0.09-0.11,0.09
			C12.55,20.58,12.03,20.58,12.03,20.58z"/>
	</g>
	<g>
		<path class="st8" d="M25.45,25.18v0.53h-1.13v4.23h-0.17l-0.42-0.48v-1.95c-0.35,0.18-0.62,0.26-0.82,0.26
			c-0.27,0-0.58-0.07-0.93-0.2c-0.15,0.32-0.31,0.55-0.47,0.7c0.24,0.3,0.47,0.57,0.68,0.81c0.21,0.24,0.4,0.45,0.58,0.63
			l-0.11,0.13c-0.36-0.38-0.67-0.71-0.91-1c-0.25-0.28-0.44-0.52-0.57-0.71c-0.27-0.37-0.4-0.67-0.4-0.88
			c0-0.13,0.03-0.22,0.09-0.29c0.06-0.06,0.15-0.1,0.26-0.1c0.14,0,0.29,0.04,0.47,0.13c0.12-0.17,0.18-0.41,0.18-0.71
			c0-0.18-0.05-0.38-0.16-0.59h-1.2v-0.53L25.45,25.18L25.45,25.18z M23.74,25.71h-1.65c0.09,0.23,0.13,0.49,0.13,0.76
			c0,0.2-0.03,0.43-0.1,0.72c0.36,0.12,0.65,0.19,0.88,0.19c0.22,0,0.4-0.06,0.54-0.17c0.13-0.11,0.2-0.25,0.2-0.39
			C23.74,26.81,23.74,25.71,23.74,25.71z"/>
	</g>
</g>
</svg>
